<?xml version="1.0" encoding="UTF-8" standalone="no"?><!DOCTYPE svg PUBLIC "-//W3C//DTD SVG 1.1//EN" "http://www.w3.org/Graphics/SVG/1.1/DTD/svg11.dtd"><svg width="100%" height="100%" viewBox="0 0 963 835" version="1.1" xmlns="http://www.w3.org/2000/svg" xmlns:xlink="http://www.w3.org/1999/xlink" xml:space="preserve" xmlns:serif="http://www.serif.com/" style="fill-rule:evenodd;clip-rule:evenodd;stroke-linejoin:round;stroke-miterlimit:2;"><rect id="Artboard1" x="0" y="0" width="962.142" height="834.5" style="fill:none;"/><ellipse cx="390.821" cy="780" rx="308.5" ry="54.5" style="fill:#3f3d56;"/><circle cx="578.321" cy="301.5" r="301.5" style="fill:#3f3d56;"/><circle cx="578.321" cy="301.5" r="248.898" style="fill-opacity:0.05;"/><circle cx="578.321" cy="301.5" r="203.994" style="fill-opacity:0.05;"/><circle cx="578.321" cy="301.5" r="146.26" style="fill-opacity:0.05;"/><path d="M279.491,328.482c0,0 -23.704,66.722 -13.169,90.426c10.536,23.704 27.216,46.53 27.216,46.53c0,0 -6.145,-132.566 -14.047,-136.956Z" style="fill:#d0cde1;fill-rule:nonzero;"/><path d="M279.491,328.482c0,0 -23.704,66.722 -13.169,90.426c10.536,23.704 27.216,46.53 27.216,46.53c0,0 -6.145,-132.566 -14.047,-136.956Z" style="fill-opacity:0.1;fill-rule:nonzero;"/><path d="M296.172,482.997c0,0 -1.756,16.68 -2.634,17.558c-0.878,0.878 0.878,2.634 0,5.268c-0.878,2.634 -1.756,6.145 0,7.023c1.756,0.878 -9.657,78.135 -9.657,78.135c0,0 -28.094,36.873 -16.681,94.816l3.512,58.821c0,0 27.216,1.756 27.216,-7.901c0,0 -1.756,-11.413 -1.756,-16.681c0,-5.267 4.389,-5.267 1.756,-7.901c-2.634,-2.634 -2.634,-4.39 -2.634,-4.39c0,0 4.39,-3.511 3.512,-4.389c-0.878,-0.878 7.901,-63.211 7.901,-63.211c0,0 9.657,-9.657 9.657,-14.925l0,-5.267c0,0 4.39,-11.413 4.39,-12.291c0,-0.878 23.704,-54.431 23.704,-54.431l9.657,38.628l10.535,55.31c0,0 5.267,50.041 15.803,69.356c0,0 18.436,63.21 18.436,61.454c0,-1.756 30.727,-6.145 29.849,-14.047c-0.878,-7.901 -18.436,-118.519 -18.436,-118.519l4.39,-164.172l-118.52,1.756Z" style="fill:#2f2e41;fill-rule:nonzero;"/><path d="M272.468,740.228c0,0 -23.704,46.53 -7.901,48.286c15.802,1.756 21.948,1.756 28.971,-5.267c3.84,-3.84 11.615,-8.992 17.876,-12.873c7.557,-4.61 11.829,-13.172 10.969,-21.982c-0.463,-4.295 -2.068,-7.834 -6.019,-8.164c-10.535,-0.877 -22.826,-10.535 -22.826,-10.535l-21.07,10.535Z" style="fill:#2f2e41;fill-rule:nonzero;"/><path d="M403.279,774.467c0,0 -23.704,46.53 -7.902,48.286c15.803,1.756 21.948,1.756 28.972,-5.267c3.839,-3.84 11.615,-8.992 17.875,-12.873c7.557,-4.61 11.83,-13.172 10.969,-21.982c-0.463,-4.295 -2.068,-7.834 -6.018,-8.164c-10.535,-0.877 -22.826,-10.535 -22.826,-10.535l-21.07,10.535Z" style="fill:#2f2e41;fill-rule:nonzero;"/><circle cx="378.226" cy="215.433" r="36.905" style="fill:#ffb8b8;"/><path d="M354.502,227.558c0,0 -26.361,48.504 -28.47,48.504c-2.109,0 47.449,15.816 47.449,15.816c0,0 13.707,-46.395 15.816,-50.612l-34.795,-13.708Z" style="fill:#ffb8b8;fill-rule:nonzero;"/><path d="M394.938,280.635c0,0 -52.675,-28.971 -57.943,-28.093c-5.267,0.878 -61.454,50.041 -60.576,70.234c0.877,20.192 7.901,53.553 7.901,53.553c0,0 2.634,93.06 7.901,93.938c5.268,0.878 -0.878,16.68 0.878,16.68c1.756,0 122.909,0 123.787,-2.633c0.878,-2.634 -21.948,-203.679 -21.948,-203.679Z" style="fill:#d0cde1;fill-rule:nonzero;"/><path d="M424.349,489.142c0,0 16.68,50.92 2.633,49.164c-14.046,-1.756 -20.192,-43.896 -20.192,-43.896l17.559,-5.268Z" style="fill:#ffb8b8;fill-rule:nonzero;"/><path d="M379.575,277.563c0,0 -32.484,7.023 -27.216,50.919c5.268,43.896 14.925,87.793 14.925,87.793l32.483,71.111l3.512,13.169l23.703,-6.145l-17.558,-101.839c0,0 -6.145,-108.863 -14.047,-112.375c-4.982,-2.124 -10.401,-3.027 -15.802,-2.633Z" style="fill:#d0cde1;fill-rule:nonzero;"/><path d="M359.821,414.958l40.385,71.989l-34.025,-75.857l-6.36,3.868Z" style="fill-opacity:0.1;fill-rule:nonzero;"/><path d="M414.967,204.566l0.122,-2.82l5.61,1.396c-0.121,-1.831 -1.041,-3.52 -2.514,-4.615l5.976,-0.334c-10.128,-14.393 -25.721,-24.03 -43.124,-26.652c-12.926,-1.873 -27.319,0.838 -36.182,10.431c-4.3,4.653 -7.001,10.57 -8.923,16.607c-3.539,11.118 -4.26,24.372 3.12,33.409c7.501,9.185 20.602,10.985 32.406,12.121c4.153,0.4 8.506,0.772 12.354,-0.839c0.429,-4.414 -0.136,-8.869 -1.653,-13.037c-0.632,-1.29 -0.934,-2.717 -0.879,-4.152c0.524,-3.512 5.209,-4.397 8.727,-3.922c3.519,0.474 7.75,1.2 10.062,-1.495c1.593,-1.856 1.499,-4.559 1.71,-6.995c0.575,-6.634 13.128,-7.712 13.188,-9.103Z" style="fill:#2f2e41;fill-rule:nonzero;"/><circle cx="641.321" cy="744.5" r="43" style="fill:#42a5f5;"/><circle cx="136.321" cy="729.5" r="43" style="fill:#42a5f5;"/><circle cx="136.321" cy="672.5" r="31" style="fill:#42a5f5;"/><circle cx="136.321" cy="624.5" r="22" style="fill:#42a5f5;"/></svg>