<?xml version="1.0" encoding="UTF-8" standalone="no"?><!DOCTYPE svg PUBLIC "-//W3C//DTD SVG 1.1//EN" "http://www.w3.org/Graphics/SVG/1.1/DTD/svg11.dtd"><svg width="100%" height="100%" viewBox="0 0 1085 806" version="1.1" xmlns="http://www.w3.org/2000/svg" xmlns:xlink="http://www.w3.org/1999/xlink" xml:space="preserve" xmlns:serif="http://www.serif.com/" style="fill-rule:evenodd;clip-rule:evenodd;stroke-linejoin:round;stroke-miterlimit:2;"><path d="M598.97,111.4c-64.72,-2.24 -126.36,-23.14 -185.22,-46c-58.86,-22.86 -117.16,-48.18 -180.37,-60.3c-40.63,-7.79 -87.1,-8.89 -119.83,12.9c-31.51,21 -41.69,57.14 -47.16,90.72c-4.12,25.26 -6.54,51.85 4.74,75.5c7.84,16.42 21.75,30.22 31.36,45.94c33.47,54.73 9.81,122.2 -26.45,175.64c-17,25.06 -36.75,49 -49.88,75.65c-13.13,26.65 -19.16,57.25 -7.67,84.52c11.38,27 38.51,47.24 67.9,61.49c59.69,28.95 130,37.23 198.61,41.93c151.83,10.38 304.46,5.89 456.69,1.38c56.34,-1.67 112.92,-3.35 168.34,-12.07c30.78,-4.83 62.55,-12.51 84.9,-31c28.36,-23.53 35.39,-63.37 16.38,-92.88c-31.88,-49.49 -120,-61.78 -142.31,-114.89c-12.26,-29.24 0.33,-61.8 18.16,-88.91c38.24,-58.17 102.33,-109.2 105.71,-175.68c2.31,-45.66 -28.5,-91.39 -76.14,-113c-49.93,-22.64 -119.18,-19.79 -156,17.69c-37.95,38.5 -104.61,53.36 -161.76,51.37Z" style="fill:#536dfe;fill-opacity:0.1;fill-rule:nonzero;"/><path d="M103.94,684.07c0,0 21,-3.36 33.6,11.48c0,0 -9.24,7.28 -29.12,-2.8l-4.48,-8.68Z" style="fill:#536dfe;fill-rule:nonzero;"/><path d="M101.69,683.75c0,0 -13.39,16.52 -6.82,34.84c0,0 10.92,-4.37 12.11,-26.63l-5.29,-8.21Z" style="fill:#536dfe;fill-rule:nonzero;"/><path d="M89.66,656.63c0,0 8.4,-15.4 42,6.16c0,0 -4.48,10.36 -19.32,9.52c-14.84,-0.84 -18.76,-7.56 -22.68,-15.68Z" style="fill:#536dfe;fill-rule:nonzero;"/><path d="M87.49,655.52c0,0 -17.43,-2 -19.12,37.9c0,0 11,2.3 18.9,-10.32c7.9,-12.62 4.61,-19.7 0.22,-27.58Z" style="fill:#536dfe;fill-rule:nonzero;"/><path d="M77.38,623.7c0,0 9.8,-27.17 45.36,-7.84c0,0 -8.12,24.92 -41.72,17.08l-3.64,-9.24Z" style="fill:#536dfe;fill-rule:nonzero;"/><path d="M66.38,583.09c0,0 18.49,-27.44 51.25,-2c0,0 -11.48,25.77 -48.45,11.76l-2.8,-9.76Z" style="fill:#536dfe;fill-rule:nonzero;"/><path d="M62.49,544.45c0,0 21.57,-25.2 54.05,0c0,0 -20.44,22.12 -54,6.44l-0.05,-6.44Z" style="fill:#536dfe;fill-rule:nonzero;"/><path d="M59.13,506.97c0,0 21.85,-26.32 52.93,-1.4c0,0 -24.64,23.24 -52.93,7.56l0,-6.16Z" style="fill:#536dfe;fill-rule:nonzero;"/><path d="M61.09,473.61c0,0 23,-33.89 52.09,-10.93c0,0 -24.64,29.13 -52.09,17.37l0,-6.44Z" style="fill:#536dfe;fill-rule:nonzero;"/><path d="M66.38,434.68c0,0 24.37,-33.6 52.65,-7.84c0,0 -28.84,29.12 -52.65,14l0,-6.16Z" style="fill:#536dfe;fill-rule:nonzero;"/><path d="M74.54,399.89c0,0 28.84,-31.57 54,-19c0,0 -30.06,33.53 -55.26,27.37l1.26,-8.37Z" style="fill:#536dfe;fill-rule:nonzero;"/><path d="M84.62,366.97c0,0 33.32,-38.65 52.64,-25.76c0,0 -24.52,30 -55,33l2.36,-7.24Z" style="fill:#536dfe;fill-rule:nonzero;"/><path d="M99.17,328.66c0,0 29.13,-31.58 50.41,-23.69c0,0 -24.92,32.77 -54.32,33.61l3.91,-9.92Z" style="fill:#536dfe;fill-rule:nonzero;"/><path d="M112.38,292.88c0,0 32.2,-30.24 46.2,-24.92c0,0 -23.24,33.6 -47.6,31.64l1.4,-6.72Z" style="fill:#536dfe;fill-rule:nonzero;"/><path d="M125.22,259.84c0,0 27.72,-36.12 42.84,-33.32c0,0 -16.8,32.2 -42.84,37l0,-3.68Z" style="fill:#536dfe;fill-rule:nonzero;"/><path d="M139.2,215.3c0,0 24.5,-27.7 37.73,-27.63c0,0 -19.34,37 -38.74,36.66l1.01,-9.03Z" style="fill:#536dfe;fill-rule:nonzero;"/><path d="M147.48,185.64l23.66,-57.67c0,0 1.19,52.14 -26.67,68.39l3.01,-10.72Z" style="fill:#536dfe;fill-rule:nonzero;"/><path d="M157.09,122.02c0,0 3.92,-48.16 1.4,-52.08c0,0 16.92,40 -1.57,73.36l0.17,-21.28Z" style="fill:#536dfe;fill-rule:nonzero;"/><path d="M76.38,623.05c0,0 -24.54,-15.21 -40.43,22c0,0 21.84,14.49 43.31,-12.51l-2.88,-9.49Z" style="fill:#536dfe;fill-rule:nonzero;"/><path d="M65.63,581.55c0,0 -30.1,-13.74 -44.71,25.12c0,0 23.26,15.95 47.45,-15.31l-2.74,-9.81Z" style="fill:#536dfe;fill-rule:nonzero;"/><path d="M61.09,546.76c0,0 -21.56,-25.2 -54,0c0,0 20.44,22.12 54,6.44l0,-6.44Z" style="fill:#536dfe;fill-rule:nonzero;"/><path d="M58.38,506.97c0,0 -21.84,-26.32 -52.93,-1.4c0,0 24.65,23.24 52.93,7.56l0,-6.16Z" style="fill:#536dfe;fill-rule:nonzero;"/><path d="M61.09,474.56c0,0 -15.32,-38 -48.62,-21.63c0,0 18,33.66 47.27,27.93l1.35,-6.3Z" style="fill:#536dfe;fill-rule:nonzero;"/><path d="M68.38,434.49c0,0 -15.22,-38.61 -49,-20.7c0,0 20.68,35.38 47.5,26.67l1.5,-5.97Z" style="fill:#536dfe;fill-rule:nonzero;"/><path d="M77.78,400.09c0,0 -6,-42.33 -33.95,-46.12c0,0 5.93,44.64 30.22,53.75l3.73,-7.63Z" style="fill:#536dfe;fill-rule:nonzero;"/><path d="M85.38,366.97c0,0 -2.34,-51 -25.49,-52.77c0,0 0.78,38.71 22.88,60l2.61,-7.23Z" style="fill:#536dfe;fill-rule:nonzero;"/><path d="M101.57,327.21c0,0 -6.91,-42.41 -29,-47.6c0,0 2.74,41.08 26.82,58l2.18,-10.4Z" style="fill:#536dfe;fill-rule:nonzero;"/><path d="M114.96,293.19c0,0 -0.24,-44.18 -13.73,-50.67c0,0 -8.38,40 9.82,56.31l3.91,-5.64Z" style="fill:#536dfe;fill-rule:nonzero;"/><path d="M126.25,259.35c0,0 -1.87,-45.5 -15.87,-51.91c0,0 -4.79,36 13.77,54.89l2.1,-2.98Z" style="fill:#536dfe;fill-rule:nonzero;"/><path d="M141.15,218.97c0,0 -0.09,-37 -10.06,-45.67c0,0 -9.93,40.53 4.85,53.11l5.21,-7.44Z" style="fill:#536dfe;fill-rule:nonzero;"/><path d="M146.3,183.81l-9.7,-61.58c0,0 -13.22,50.46 10.17,72.74l-0.47,-11.16Z" style="fill:#536dfe;fill-rule:nonzero;"/><path d="M148.2,122.61c0,0 -24.92,-41.4 -24.41,-46c0,0 2.65,43.39 34,65l-9.59,-19Z" style="fill:#536dfe;fill-rule:nonzero;"/><path d="M151.12,110.38c0,0 -23.52,-58.8 -34.16,-63.57c0,0 33.6,17.09 36.12,61.89l-1.96,1.68Z" style="fill:#536dfe;fill-rule:nonzero;"/><path d="M138.06,224.68l-1.6,-0.5c19.85,-64.73 24.8,-106 13.94,-116.34l1.16,-1.22c11.51,10.91 6.82,51.74 -13.5,118.06Z" style="fill:#536dfe;fill-rule:nonzero;"/><path d="M83.38,376.19l-2.38,-0.84c2.1,-5.93 4.38,-11.95 6.76,-17.89c20.72,-51.63 38.35,-99.67 49.67,-136.55l2.06,-1c-11.33,37 -28.65,86.83 -49.39,138.53c-2.34,5.87 -4.6,11.85 -6.72,17.75Z" style="fill:#444053;fill-rule:nonzero;"/><path d="M133.49,732.52c-0.32,-0.36 -32.5,-36.58 -54.92,-98.44c-13.148,-36.207 -20.472,-74.27 -21.7,-112.77c-1.53,-48.13 8.56,-101.88 25.87,-150.69l1.88,2.2c-38.84,109.56 -23.41,203.45 -2.94,260c22.19,61.29 54,97.13 54.31,97.48l-2.5,2.22Z" style="fill:#444053;fill-rule:nonzero;"/><ellipse cx="529.83" cy="734.49" rx="446.98" ry="41.12" style="fill:#536dfe;fill-opacity:0.1;"/><circle cx="503.74" cy="449.31" r="308.5" style="fill:#536dfe;"/><ellipse cx="421.09" cy="389.51" rx="31.99" ry="41.9" style="fill:#444053;"/><ellipse cx="421.09" cy="373.158" rx="56.177" ry="36.68" style="fill:#536dfe;"/><ellipse cx="586.39" cy="389.51" rx="31.99" ry="41.9" style="fill:#444053;"/><ellipse cx="586.39" cy="371.701" rx="63.6" ry="37.359" style="fill:#536dfe;"/><path d="M362.809,515.487c0,56.558 63.66,102.476 142.071,102.476c78.41,0 142.07,-45.918 142.07,-102.476l-284.141,0Z" style="fill:#444053;"/><path d="M352.15,219.65c0,0 -92.93,59.42 -92.17,152.32c0.76,92.9 92.17,-152.32 92.17,-152.32Z" style="fill-opacity:0.05;fill-rule:nonzero;"/><g><path d="M918.99,728.13c-1.6,-6.37 -5.48,-6.48 -5.48,-6.48l-0.06,-0.64l-1.43,-15.73c-0.055,0.081 -0.122,0.152 -0.2,0.21l-0.08,-2c-0.013,-0.378 -0.046,-0.755 -0.1,-1.13c2.283,-1.661 3.971,-4.014 4.81,-6.71c-0.59,-0.75 -0.15,-0.6 -0.15,-0.6c0,0 -9.71,-9.94 -8.74,-15.12c0.97,-5.18 -7.31,-10.81 -7.31,-10.81c0,0 -3,-9.26 -3,-12.07c0,-2.81 -11.34,-21.26 -11.34,-21.26c0,0 -10,-23.47 -18.78,-33.55c-8.78,-10.08 -8,-15.57 -8,-15.57c-0.768,-1.065 -1.421,-2.208 -1.95,-3.41c-0.387,-0.831 -0.721,-1.687 -1,-2.56c1.8,-0.23 3,-0.27 3,-0.27c0,0 7.19,-1.23 7.51,-2.71c0.397,-1.669 1.245,-3.198 2.45,-4.42c1.37,-1.47 -3.9,-29.47 -1.1,-36.71c2.8,-7.24 -3.59,-40.46 -3.59,-40.46c0.311,-2.036 1.462,-3.85 3.17,-5l4.24,-1.67l2.15,-0.52l0.29,-0.07l1.44,-0.36l0.29,-0.08l0.62,-0.17l0.23,-0.06l1,-0.31l0.33,-0.11l0.47,-0.16l0.36,-0.14l0.48,-0.19l0.53,-0.25l0.31,-0.16l0.33,-0.19l0.26,-0.17c0.136,-0.095 0.266,-0.199 0.39,-0.31l0.2,-0.2c0.082,-0.082 0.159,-0.169 0.23,-0.26c0.049,-0.063 0.093,-0.13 0.13,-0.2l0.06,-0.08c0.355,-0.726 0.273,-1.593 -0.21,-2.24c-1.049,-1.498 -2.332,-2.819 -3.8,-3.91l-2.31,-3.55c-0.006,-0.023 -0.006,-0.047 0,-0.07c0,-0.18 0.07,-0.38 0.12,-0.58c0.167,-0.748 0.204,-1.519 0.11,-2.28c0.005,-0.043 0.005,-0.087 0,-0.13c0.032,-0.239 0.048,-0.479 0.05,-0.72l0,-0.31c0,-0.23 0,-0.46 -0.05,-0.69c-0.05,-0.23 0,-0.23 0,-0.35c0,-0.12 -0.08,-0.44 -0.13,-0.66c-0.05,-0.22 -0.06,-0.26 -0.1,-0.39c-0.04,-0.13 -0.11,-0.41 -0.18,-0.62l-0.15,-0.41c-0.07,-0.19 -0.15,-0.39 -0.23,-0.58c-0.08,-0.19 -0.12,-0.29 -0.19,-0.43c-0.07,-0.14 -0.16,-0.36 -0.25,-0.54c-0.09,-0.18 -0.15,-0.29 -0.22,-0.43c-0.07,-0.14 -0.18,-0.34 -0.28,-0.51l-0.24,-0.42l-0.28,-0.46l-0.27,-0.42l-0.27,-0.41l-0.27,-0.39c-0.09,-0.12 -0.18,-0.25 -0.27,-0.36l-0.26,-0.36l-0.24,-0.31l-0.25,-0.32l-0.21,-0.26l-0.22,-0.27l-0.17,-0.19l-0.3,-0.35l-0.13,-0.14l-0.07,-0.08l-0.07,-0.07l0,-0.86c0,-0.14 0,-0.3 -0.06,-0.47l0,-0.06c-0.137,-1.038 -0.221,-2.083 -0.25,-3.13c0.028,-1.091 0.273,-2.165 0.72,-3.16c0.274,-0.494 0.247,-1.102 -0.07,-1.57c0.029,-0.072 0.063,-0.142 0.1,-0.21c0.69,-1.33 -0.62,-2.47 -2.26,-3.32c0,-2.44 -1,-7.39 -9.08,-8.28c0,0 -4.73,-3.19 -0.16,-8.92c4.57,-5.73 -2.69,-20.39 -2.69,-20.39c0,0 -2.31,-6 -1.07,-8.48c1.24,-2.48 -1.44,-24.54 -1.44,-24.54c0,0 0,-20.35 -4.5,-29c-4.5,-8.65 -7.57,-24.18 -12.76,-26.48c-5.19,-2.3 -9.3,-7.86 -9.3,-7.86l-2.42,0.78c-0.42,-0.62 -0.84,-1.24 -1.24,-1.86c0.194,-0.053 0.385,-0.12 0.57,-0.2c1.113,-0.501 2.031,-1.355 2.61,-2.43c0.168,-0.302 0.311,-0.616 0.43,-0.94c0.408,-1.176 0.604,-2.415 0.58,-3.66c-0.089,-1.241 -0.052,-2.487 0.11,-3.72c0.41,-2 1.79,-3.6 3,-5.27c2.427,-3.323 3.972,-7.208 4.49,-11.29c0.491,-4.102 -0.522,-8.247 -2.85,-11.66c-1.18,-1.66 -2.71,-3.13 -3.45,-5c-0.34,-0.86 -0.49,-1.78 -0.75,-2.66c-1.618,-4.99 -6.059,-8.566 -11.28,-9.08c-4.25,-0.39 -8.44,1.23 -12.7,1.18c-4.94,-0.06 -10,-2.32 -14.63,-0.6c-2.072,0.895 -3.905,2.266 -5.35,4c-1.124,1.24 -2.172,2.545 -3.14,3.91c-0.57,0.8 -1.11,1.61 -1.62,2.45l0,0.07c-0.52,0.85 -1,1.72 -1.46,2.61c-0.108,0.203 -0.133,0.439 -0.07,0.66c0.126,0.255 0.339,0.457 0.6,0.57c0.814,0.284 1.567,0.718 2.22,1.28c0.25,0.286 0.521,0.554 0.81,0.8c-0.14,0.17 -0.29,0.33 -0.43,0.51c-3.498,4.458 -5.401,9.964 -5.401,15.631c0,9.954 5.87,19.023 14.951,23.099l0.51,1.12c0.964,2.124 1.769,4.317 2.41,6.56l-2.18,0.2c-0.054,1.403 -1.178,2.549 -2.58,2.63c-2.55,0.27 -10.66,3.27 -10.66,3.27c0,0 -12.19,6.21 -19.54,8.18c-7.35,1.97 -10.61,0.29 -10.61,0.29c0,0 -0.83,5.34 -9.15,2.4c-8.32,-2.94 -9.42,0.16 -9.42,0.16c0,0 -23.44,-0.64 -40.51,1.64c-17.07,2.28 -24.51,0.68 -24.51,0.68c0,0 -0.08,0.9 -0.17,2.36l-1.73,-1c-11.34,-6.06 -32.25,-15.46 -35.23,-4c-4.16,15.93 32.37,22.7 32.37,22.7l2.7,-0.29l1.77,-0.19c0.34,4.42 1.12,8 2.75,8.39c0.59,0.15 18.07,0.11 22.67,2.26c4.6,2.15 14.51,-1 14.51,-1c0,0 2.55,-0.56 6.4,1.72c3.85,2.28 24.77,2.29 24.77,2.29c0,0 1.49,0.32 6.84,1.89c5.35,1.57 14.79,0.21 14.79,0.21l22.07,2.85c0,0 1.57,15.47 -0.16,21.09c-1.73,5.62 -0.34,33.27 -0.34,33.27c0,0 5,33.65 3.63,37.64c-1.08,3.09 8.5,-0.35 12.88,-2.06c0.23,0.91 0.52,2 0.85,3.23c0,0.11 0.15,0.18 0.32,0.22l0.36,0.24c0.16,0.66 0.32,1.3 0.47,1.9l-1.19,0.32l1.57,1.05c0.174,0.635 0.385,1.259 0.63,1.87c1.3,3 -8.19,8.49 -8.19,8.49c0,0 -26.21,14.33 -34.08,21c0,0 -6.15,2 -6.63,3.91c-0.48,1.91 -6,1.25 -6,1.25c0,0 -0.78,2.07 -1.41,4.15c-0.63,2.08 -4,5.29 -4,5.29c0,0 -7.79,1.22 -8.89,5.36c-0.784,3.203 -1.381,6.448 -1.79,9.72l-8.75,15.92c0,0 -23.86,17.78 -26.36,24.58l-16.89,11.32c0,0 -2.78,6.2 -7.71,6.42c-4.93,0.22 -13.44,9 -13.44,9c0,0 2.5,1 6.17,2.7c-0.22,0.34 -0.43,0.68 -0.61,1c-0.678,1.283 -1.18,2.652 -1.49,4.07c-0.31,1.418 -11,6.68 -19.18,3.88c-4.62,-1.58 -13.73,-4.31 -20.32,-4.64c-5.07,-0.25 -8.67,0.92 -7.62,5.13c1.79,7.27 19.84,25.57 28.74,34.25c1.41,1.373 2.903,2.659 4.47,3.85c2.072,1.592 4.277,3.004 6.59,4.22c1.353,0.711 2.741,1.351 4.16,1.92c1.525,0.616 3.092,1.121 4.69,1.51c3.14,0.73 6,0.7 7.61,-1c5.16,-5.28 3,-9 3,-9l0.58,-0.43l14.22,-10.64l3.22,-2.75l0.89,-0.76c-0.484,3.905 -2.165,7.567 -4.81,10.48c3.544,-2.062 7.27,-3.796 11.13,-5.18c5,-1.56 8.08,-11 8.08,-11c0,0 2.73,-2.78 7.58,-7.76c4.85,-4.98 5.75,-17.73 5.75,-17.73c0,0 24.89,-15.84 35,-34.11c0,0 1.83,-2.5 5,-6.17c3.17,-3.67 3.28,-9.76 3.28,-9.76c0,0 0.47,-1.77 4.72,-6.31c4.25,-4.54 3.7,-7.38 3.7,-7.38c0,0 2,-2.79 9.44,-2.23c7.44,0.56 24.92,-8.26 24.92,-8.26c0,0 0,0.81 0.16,2.21c-1.52,3.5 -2.52,5.93 -2.52,5.93c0,0 15.24,60.83 9.13,70.39c-3.17,5 5.57,1.2 14.73,-3.57c0.47,0.57 1,1.17 1.58,1.81c2.17,2.339 4.481,4.544 6.92,6.6l0.3,0.26c0,0 18.56,28.64 21.5,32c2.94,3.36 1,13.24 1,13.24c0,0 5.18,34.53 12.26,40.58c1.475,1.118 3.123,1.987 4.88,2.57c-0.12,4.3 3.77,7.83 3.77,7.83c0,0 -0.08,11.44 -6.06,16.28c-3.38,2.75 -9.75,8.33 -13.1,13.14c-2.57,3.71 -3.37,7 0.33,8.16c6.39,2.07 28.83,-2.93 39.64,-5.56c5.323,-1.262 10.343,-3.567 14.77,-6.78c3.74,-2.75 7,-6.08 6.26,-9.07Zm-246.17,-114.44c0.62,0.41 1.23,0.83 1.84,1.26l-1,0.8l-0.41,0.32c0,-0.21 -0.06,-0.44 -0.1,-0.67c-0.11,-0.55 -0.21,-1.12 -0.33,-1.71Z" style="fill:url(#_Linear1);fill-rule:nonzero;"/><path d="M675.65,361.97l-11.27,1.19l-2.66,0.29c0,0 -36,-6.71 -31.9,-22.45c2.94,-11.39 23.56,-2.07 34.75,4c4.28,2.31 7.17,4.13 7.17,4.13l3.91,12.84Z" style="fill:#d17483;fill-rule:nonzero;"/><path d="M702.13,628.05l-12.34,10.61l-3.18,2.73l-7.4,2.24l-18.33,-16.18l13.62,-10.86l0.4,-0.33l11.02,-8.78l16.21,20.57Z" style="fill:#dce6f2;fill-rule:nonzero;"/><path d="M898.16,692.72l-17.42,0.81l4.78,21.29l6.53,2.25l18.19,-1.52l-0.49,-12.22c-0.244,-5.901 -5.165,-10.622 -11.071,-10.622c-0.173,0 -0.346,0.004 -0.519,0.012Z" style="fill:#dce6f2;fill-rule:nonzero;"/><path d="M674.38,615.97c-4.096,-2.789 -8.399,-5.263 -12.87,-7.4c1.144,-2.484 3.35,-4.323 6,-5c3.94,-0.83 5.95,6.8 6.87,12.4Z" style="fill-opacity:0.1;fill-rule:nonzero;"/><path d="M689.78,638.66c0.75,-8.89 -6.71,-16.64 -14.88,-22.39l11,-8.79l16.2,20.57l-12.32,10.61Z" style="fill-opacity:0.1;fill-rule:nonzero;"/><path d="M914.38,695.55c-5.11,16.87 -40.26,11.8 -47.24,5.8c-6.98,-6 -12.1,-40.26 -12.1,-40.26c0,0 1.92,-9.85 -1,-13.14c-2.92,-3.29 -21.2,-31.7 -21.2,-31.7c0,0 -0.2,-0.17 -0.3,-0.25c-2.409,-2.041 -4.69,-4.229 -6.83,-6.55c-5.63,-6.17 -5.75,-9.15 -5.75,-9.15c0,0 -2,-11.68 -8.89,-27.54c-5,-11.7 -7.07,-27.6 -7.78,-35.15c-0.25,-2.69 -0.34,-4.32 -0.34,-4.32c0,0 -17.22,8.74 -24.58,8.19c-7.36,-0.55 -9.32,2.22 -9.32,2.22c0,0 0.55,2.81 -3.64,7.32c-4.19,4.51 -4.66,6.26 -4.66,6.26c0,0 -0.09,6.05 -3.24,9.68c-3.15,3.63 -4.95,6.12 -4.95,6.12c-10,18.13 -34.54,33.84 -34.54,33.84c0,0 -0.91,12.66 -5.71,17.6c-4.8,4.94 -7.48,7.7 -7.48,7.7c0,0 -3.08,9.39 -8,10.94c-3.818,1.369 -7.5,3.09 -11,5.14c20.25,-24.31 -29.87,-43.47 -29.87,-43.47c0,0 8.38,-8.72 13.25,-8.94c4.87,-0.22 7.61,-6.37 7.61,-6.37l16.66,-11.25c2.46,-6.75 26,-24.38 26,-24.38l8.63,-15.79c0.406,-3.218 0.997,-6.41 1.77,-9.56c1.08,-4.1 8.77,-5.32 8.77,-5.32c0,0 3.29,-3.2 3.9,-5.25c0.61,-2.05 1.39,-4.11 1.39,-4.11c0,0 5.44,0.68 5.91,-1.24c0.47,-1.92 6.54,-3.88 6.54,-3.88c7.77,-6.67 33.62,-20.88 33.62,-20.88c0,0 9.36,-5.46 8.08,-8.43c-0.247,-0.603 -0.458,-1.221 -0.63,-1.85l0,-0.16c-0.113,-0.38 -0.223,-0.78 -0.33,-1.2c-1.18,-4.57 -2.48,-11.58 -2.48,-11.58c0,0 45.49,-26.45 60.42,-19.74c4.36,1.95 6.9,6.87 8.23,13.15c2.13,10.05 1.16,23.57 -0.47,33.95c-0.629,4.272 -1.541,8.498 -2.73,12.65c-3.56,11.45 -4.25,28.38 -4.25,28.38c0,0 -0.47,32.27 -1.62,40.21c-0.471,3.695 0.119,7.448 1.7,10.82c0.524,1.191 1.17,2.324 1.93,3.38c0.76,1.056 -0.82,5.44 7.88,15.45c8.7,10.01 18.52,33.27 18.52,33.27c0,0 11.23,18.29 11.19,21.1c-0.04,2.81 2.92,12 2.92,12c0,0 8.17,5.56 7.21,10.71c-0.96,5.15 8.62,15 8.62,15c0,0 -0.4,-0.17 0.18,0.58Z" style="fill:#bdd2e8;fill-rule:nonzero;"/><path d="M798.05,487.68c0,0 9.8,4.71 10.6,10.33c0.8,5.62 -10.6,-10.33 -10.6,-10.33Z" style="fill-opacity:0.1;fill-rule:nonzero;"/><path d="M760.59,520l5.36,6.27l-2.78,-11.39l-5.89,-0.38l3.31,5.5Z" style="fill-opacity:0.1;fill-rule:nonzero;"/><path d="M754.38,533.32c0.58,0.45 7.15,15.14 8.91,15.31c1.76,0.17 -8.91,-15.31 -8.91,-15.31Z" style="fill-opacity:0.1;fill-rule:nonzero;"/><path d="M862.87,491.97c-0.629,4.272 -1.541,8.498 -2.73,12.65c-3.56,11.45 -4.25,28.38 -4.25,28.38c0,0 -0.47,32.27 -1.62,40.21c-0.471,3.695 0.119,7.448 1.7,10.82c-3,0.29 -8.57,1.16 -12.37,3.61c-5.35,3.46 -2.25,12.94 -2.25,12.94c0,0 -7.71,4.64 -15.61,8.84c-5.63,-6.17 -5.75,-9.15 -5.75,-9.15c0,0 -2,-11.68 -8.89,-27.54c-5,-11.7 -7.07,-27.6 -7.78,-35.15c3,-7 7.95,-17.78 11.28,-22.43c3.53,-4.93 -0.68,-19.85 -3.62,-28.58l-0.81,-0.55l-9.67,-6.49l-2.94,-2l-1.54,-1l1.17,-0.32l66.19,-18.16c2.09,10.05 1.12,23.57 -0.51,33.92Z" style="fill-opacity:0.1;fill-rule:nonzero;"/><path d="M796.04,473.89l4.48,3l9.66,6.49l0.82,0.55c2.94,8.73 7.15,23.65 3.61,28.58c-5.11,7.15 -14,28.84 -14,28.84c0,0 15,60.34 9,69.83c-6,9.49 31.77,-13.21 31.77,-13.21c0,0 -3.09,-9.48 2.26,-12.94c5.35,-3.46 14.35,-3.77 14.35,-3.77c0,0 7.09,-1.22 7.41,-2.69c0.386,-1.655 1.224,-3.172 2.42,-4.38c1.34,-1.46 -3.85,-29.24 -1.09,-36.42c2.76,-7.18 -3.55,-40.14 -3.55,-40.14c0.298,-2.033 1.439,-3.849 3.14,-5c0.79,-0.545 1.661,-0.963 2.58,-1.24l0.57,-0.16c0.34,-0.1 0.7,-0.19 1,-0.26c4.3,-1.07 9,-2 10,-4l-1,-1.52l-5.27,-8.14c-0.108,-0.795 -0.057,-1.604 0.15,-2.38c0,-0.16 0.06,-0.33 0.08,-0.49c0.77,-5.19 -5.21,-11.49 -5.21,-11.49c-0.265,-1.48 -0.419,-2.977 -0.46,-4.48l0,-0.05c-0.123,-1.588 0.095,-3.184 0.64,-4.68l-73.36,20.15Z" style="fill:#653c5b;fill-rule:nonzero;"/><path d="M812.89,485.39c-0.52,-0.11 32.26,1.06 42.39,14c0,0.03 0.36,-4.68 -42.39,-14Z" style="fill-opacity:0.1;fill-rule:nonzero;"/><path d="M838.73,506.97c0,0 6.54,47 5.09,55.19c-1.45,8.19 7.62,2.91 7.62,2.91c0,0 9.25,-68.22 -12.71,-58.1Z" style="fill-opacity:0.1;fill-rule:nonzero;"/><path d="M880.54,486.97c-0.07,-0.162 -0.15,-0.319 -0.24,-0.47c-2.21,-3.7 -6.77,-4.47 -6,-9.19c0,-0.19 0.07,-0.4 0.12,-0.61c0.167,-0.741 0.204,-1.506 0.11,-2.26c-0.53,-4.76 -5.24,-9.72 -5.24,-9.72c-0.366,-2.062 -0.51,-4.157 -0.43,-6.25c0.02,-1.097 0.262,-2.179 0.71,-3.18c0.275,-0.487 0.248,-1.09 -0.07,-1.55c-1.22,-2.07 -6.63,-3.41 -6.63,-3.41l-36.65,5.81c-4.33,1.48 -8.46,3 -12.23,4.45c-11.31,4.32 -19.33,7.91 -19.33,7.91l0.27,1.07c0.24,1 0.64,2.55 1.13,4.34c0.16,0.62 3.19,-0.11 3.38,0.55l1.12,2.46l8.09,2.24c0,0 0.66,1.65 1.57,4.25c0,0.15 0.11,0.31 0.16,0.47l0.66,0.09c15.29,1.88 36.47,4.87 55.3,8.68l14.2,-5.68Z" style="fill-opacity:0.1;fill-rule:nonzero;"/><path d="M869.47,491.23l-0.57,0.16c-19.71,-4.12 -42.5,-7.33 -58.52,-9.29c-1,-2.87 -1.72,-4.71 -1.72,-4.71l-12.06,-3.34l-0.33,-1.16c-0.58,-2.09 -1.06,-4 -1.34,-5.1l-0.27,-1.07c0,0 8,-3.59 19.33,-7.9c3.77,-1.45 7.91,-3 12.24,-4.46l36.64,-5.8c1.337,0.344 2.642,0.802 3.9,1.37c1.87,0.87 3.57,2.11 2.8,3.59c-1.51,2.92 -0.27,9.42 -0.27,9.42c0,0 6.38,6.72 5.13,12c-1.25,5.28 3.59,5.95 5.89,9.81c2.3,3.86 -4.94,4.94 -10.85,6.48Z" style="fill:#653c5b;fill-rule:nonzero;"/><path d="M835.82,332.76c0,0 -48.1,3.86 -42.58,-0.48c2.76,-2.17 0.86,-8.63 -1.74,-14.54c-1.724,-3.85 -3.677,-7.594 -5.85,-11.21c-2.173,-3.616 36.56,-10.56 32.64,-4.56c-1.16,1.77 -0.11,5.18 2,9.11c4.89,9.38 15.53,21.68 15.53,21.68Z" style="fill:#d17483;fill-rule:nonzero;"/><path d="M820.26,311.11c-1,1.19 -3.59,-0.23 -4.84,0.75c-4.37,3.42 -8.51,7.95 -14.48,7.86c-3.246,-0.05 -6.452,-0.729 -9.44,-2c-1.724,-3.85 -3.677,-7.594 -5.85,-11.21c-2.173,-3.616 36.56,-10.54 32.64,-4.54c-1.16,1.8 -0.11,5.21 1.97,9.14Z" style="fill-opacity:0.1;fill-rule:nonzero;"/><path d="M826.51,293.97c-0.197,13.686 -11.51,24.837 -25.197,24.837c-13.825,0 -25.2,-11.375 -25.2,-25.2c0,-13.824 11.375,-25.2 25.2,-25.2c0.122,0 0.245,0.001 0.367,0.003c13.67,0.15 24.834,11.438 24.834,25.108c0,0.151 -0.001,0.302 -0.004,0.452Z" style="fill:#d17483;fill-rule:nonzero;"/><path d="M867.21,454.21c-3.962,0.05 -7.916,-0.366 -11.78,-1.24c-6.17,-1.42 -11.4,4.11 -11.4,4.11c0,0 -12,4.69 -17.45,3.73c-5.45,-0.96 -29.35,11.65 -29.35,11.65l-1,0.39c-0.58,-2.09 -1.06,-4 -1.34,-5.1l-0.27,-1.07c0,0 8,-3.59 19.33,-7.9c3.77,-1.45 7.91,-3 12.24,-4.46l36.64,-5.8c1.337,0.344 2.642,0.802 3.9,1.37c0.54,1.372 0.706,2.863 0.48,4.32Z" style="fill-opacity:0.1;fill-rule:nonzero;"/><path d="M675.65,361.97l-11.27,1.19c-0.329,-6.068 -0.266,-12.15 0.19,-18.21c4.28,2.31 7.17,4.13 7.17,4.13l3.91,12.89Z" style="fill-opacity:0.1;fill-rule:nonzero;"/><path d="M826.91,317.3c0,0 -7.11,2.25 -11.11,3.82c-4,1.57 -24.07,3.33 -24.07,3.33c-0.044,1.391 -1.151,2.533 -2.54,2.62c-2.51,0.25 -10.51,3.23 -10.51,3.23c0,0 -12,6.16 -19.28,8.12c-7.28,1.96 -10.47,0.29 -10.47,0.29c0,0 -0.81,5.29 -9,2.37c-8.19,-2.92 -9.29,0.16 -9.29,0.16c0,0 -23.13,-0.63 -40,1.63c-16.87,2.26 -24.18,0.68 -24.18,0.68c0,0 -2.19,26.52 2.4,27.74c0.58,0.16 17.83,0.11 22.36,2.24c4.53,2.13 14.31,-1 14.31,-1c0,0 2.52,-0.55 6.32,1.72c3.8,2.27 24.43,2.27 24.43,2.27c0,0 1.47,0.31 6.75,1.87c5.28,1.56 14.58,0.21 14.58,0.21l21.77,2.85c0,0 1.55,15.35 -0.15,20.92c-1.7,5.57 -0.34,33 -0.34,33c0,0 5,33.38 3.59,37.34c-1.41,3.96 14.77,-2.88 14.77,-2.88c0,0 23.92,-12.62 29.35,-11.66c5.43,0.96 17.45,-3.72 17.45,-3.72c0,0 5.24,-5.53 11.41,-4.11c3.862,0.864 7.813,1.267 11.77,1.2c3.957,-0.067 1.74,-8.37 -8.85,-9.56c0,0 -4.67,-3.16 -0.17,-8.84c4.5,-5.68 -2.63,-20.17 -2.63,-20.17c0,0 -2.27,-5.93 -1.06,-8.42c1.21,-2.49 -1.41,-24.33 -1.41,-24.33c0,0 0,-20.19 -4.44,-28.81c-4.44,-8.62 -7.47,-24 -12.59,-26.26c-5.12,-2.26 -9.17,-7.85 -9.17,-7.85Z" style="fill:#dce6f2;fill-rule:nonzero;"/><path d="M800.13,384.97c0,0 31.19,13.87 39.57,25.05c8.38,11.18 -39.57,-25.05 -39.57,-25.05Z" style="fill-opacity:0.1;fill-rule:nonzero;"/><path d="M812.46,408.75c0,0 37.7,21.92 35.12,27.48c-2.58,5.56 -35.12,-27.48 -35.12,-27.48Z" style="fill-opacity:0.1;fill-rule:nonzero;"/><path d="M818.62,430.8c0,0 13.63,5.51 16.09,8.64c2.46,3.13 -16.09,-8.64 -16.09,-8.64Z" style="fill-opacity:0.1;fill-rule:nonzero;"/><path d="M756.2,345.3c0,0 28.81,15.45 23.86,21.72c-4.95,6.27 -23.86,-21.72 -23.86,-21.72Z" style="fill-opacity:0.1;fill-rule:nonzero;"/><path d="M744.7,356.19c0,0 4.7,11 4.82,12.89c0.12,1.89 -8.68,-11.33 -4.82,-12.89Z" style="fill-opacity:0.1;fill-rule:nonzero;"/><path d="M725.38,359.15c0,0.59 15,9.79 8.81,12.21c-6.19,2.42 -8.81,-12.21 -8.81,-12.21Z" style="fill-opacity:0.1;fill-rule:nonzero;"/><path d="M736.79,544.56c0.44,0.59 2,6.36 6.8,8.94c4.8,2.58 -6.8,-8.94 -6.8,-8.94Z" style="fill-opacity:0.1;fill-rule:nonzero;"/><path d="M691.8,588.26c-0.07,4.86 -0.89,20.33 3.07,22c3.96,1.67 -3.07,-22 -3.07,-22Z" style="fill-opacity:0.1;fill-rule:nonzero;"/><path d="M702.8,601.97c0,0 9.06,15.31 5.93,17.92c-3.13,2.61 -6.73,-3.64 -6.73,-3.64l0.8,-14.28Z" style="fill-opacity:0.1;fill-rule:nonzero;"/><path d="M864.13,635.28c3.682,0.711 7.432,1.013 11.18,0.9c6.07,-0.21 -11.18,-0.9 -11.18,-0.9Z" style="fill-opacity:0.1;fill-rule:nonzero;"/><path d="M859.38,627.84c0,0 11.17,2.08 15.18,-0.07c4.01,-2.15 -15.18,0.07 -15.18,0.07Z" style="fill-opacity:0.1;fill-rule:nonzero;"/><path d="M854.98,615.97c0,0 11.18,0.9 13.45,-2.9c2.27,-3.8 -13.45,2.9 -13.45,2.9Z" style="fill-opacity:0.1;fill-rule:nonzero;"/><path d="M851.83,609.75c0,0 10.73,1.78 12.53,-0.7c1.8,-2.48 -12.53,0.7 -12.53,0.7Z" style="fill-opacity:0.1;fill-rule:nonzero;"/><path d="M841.38,587.2c0,0 11.56,5.47 12.84,8.59c1.28,3.12 -12.84,-8.59 -12.84,-8.59Z" style="fill-opacity:0.1;fill-rule:nonzero;"/><path d="M826.51,293.97c-0.1,7.627 -3.67,14.807 -9.69,19.49c-0.07,-0.13 -0.13,-0.26 -0.19,-0.39c-1.1,-2.35 -1.38,-5 -2.4,-7.34c-0.298,-0.892 -0.939,-1.63 -1.78,-2.05c-1.62,-0.63 -3.23,0.85 -4.3,2.18c-1.07,1.33 -2.66,2.83 -4.29,2.24c-0.903,-0.433 -1.616,-1.185 -2,-2.11c-1.67,-3 -3.4,-6.17 -3.51,-9.59c0.12,-1.684 0.14,-3.374 0.06,-5.06c-0.43,-2.94 -2.64,-5.41 -5.18,-7.07c-2.652,-1.527 -5.409,-2.863 -8.25,-4c-1.286,-0.542 -2.469,-1.299 -3.5,-2.24c4.775,-6.067 12.082,-9.615 19.802,-9.615c13.825,0 25.2,11.376 25.2,25.2c0,0.119 0,0.237 -0.002,0.355l0.03,0Z" style="fill-opacity:0.1;fill-rule:nonzero;"/><path d="M778.38,274.29c-0.61,1.42 1.71,1.29 2.72,2.49c1.095,1.146 2.421,2.046 3.89,2.64c2.838,1.143 5.595,2.479 8.25,4c2.55,1.67 4.75,4.13 5.18,7.08c0.078,1.683 0.062,3.369 -0.05,5.05c0.11,3.43 1.83,6.58 3.5,9.6c0.393,0.919 1.103,1.668 2,2.11c1.64,0.58 3.21,-0.91 4.29,-2.24c1.08,-1.33 2.69,-2.81 4.31,-2.19c0.837,0.423 1.473,1.16 1.77,2.05c1,2.37 1.3,5 2.4,7.35c1.1,2.35 3.46,4.47 6.1,4.12c1.599,-0.286 2.979,-1.299 3.73,-2.74c0.715,-1.407 1.059,-2.973 1,-4.55c-0.089,-1.231 -0.052,-2.467 0.11,-3.69c0.41,-2 1.76,-3.58 2.92,-5.23c2.384,-3.294 3.901,-7.136 4.41,-11.17c0.48,-4.065 -0.518,-8.169 -2.81,-11.56c-1.16,-1.65 -2.68,-3.11 -3.41,-5c-0.33,-0.85 -0.48,-1.76 -0.74,-2.64c-1.584,-4.939 -5.969,-8.485 -11.13,-9c-4.18,-0.39 -8.32,1.22 -12.52,1.17c-4.87,-0.05 -9.9,-2.3 -14.44,-0.59c-2.049,0.897 -3.855,2.268 -5.27,4c-2.457,2.707 -4.536,5.735 -6.18,9" style="fill:#653c5b;fill-rule:nonzero;"/><path d="M672.58,651.97l-0.58,0.43c0,0 2.16,3.72 -2.93,9c-2.39,2.45 -7.44,1.33 -12.13,-0.54c-5.603,-2.285 -10.701,-5.652 -15,-9.91c-8.77,-8.61 -26.58,-26.76 -28.35,-34c-1,-4.18 2.52,-5.34 7.52,-5.09c6.5,0.33 15.48,3 20,4.61c8.06,2.77 18.91,-3.85 18.91,-3.85c0.313,-1.392 0.807,-2.737 1.47,-4c1.144,-2.484 3.35,-4.323 6,-5c3.9,-0.79 5.91,6.84 6.84,12.39c0,0.22 0.07,0.45 0.11,0.67c0.44,2.77 0.61,4.88 0.61,4.88c6.93,-0.48 9.88,9.58 9.51,14.73c-0.37,5.15 2,5.19 2,5.19l-13.98,10.49Z" style="fill:#ffd6db;fill-rule:nonzero;"/><path d="M672,652.37c0,0 2.16,3.72 -2.93,9c-2.39,2.45 -7.44,1.34 -12.13,-0.54c-5.605,-2.281 -10.703,-5.649 -15,-9.91c-8.78,-8.61 -26.58,-26.76 -28.35,-34c-1,-4.18 2.52,-5.34 7.52,-5.09c0.43,4.22 1.51,10 4.15,13.07c4.5,5.22 17.35,22.8 33.42,23c4.932,-0.069 9.777,1.323 13.92,4l-0.6,0.47Z" style="fill:#c8a9b4;fill-rule:nonzero;"/><path d="M642.92,635.74c0,0 15.5,-11.86 28.53,-6.51c0,0 -11.48,-0.91 -28.53,6.51Z" style="fill-opacity:0.1;fill-rule:nonzero;"/><path d="M660.49,632.9c0,0 14.82,4.64 17.77,4.68c2.95,0.04 -15.24,-5.82 -17.77,-4.68Z" style="fill-opacity:0.1;fill-rule:nonzero;"/><path d="M876.91,668.45c0,0 17.79,0.37 18.36,4.41c0.57,4.04 -6.64,3.8 -6.64,3.8l-11.72,-8.21Z" style="fill-opacity:0.1;fill-rule:nonzero;"/><path d="M911.43,720.68l0.06,0.64c0,0 3.83,0.12 5.4,6.43c0.74,3 -2.48,6.27 -6.12,9c-4.364,3.184 -9.317,5.471 -14.57,6.73c-10.66,2.6 -32.8,7.56 -39.1,5.52c-3.65,-1.19 -2.86,-4.42 -0.32,-8.1c3.3,-4.78 9.58,-10.31 12.92,-13c5.89,-4.8 6,-16.15 6,-16.15c0,0 -5.23,-4.76 -3.32,-9.93c1.91,-5.17 17.15,2.7 17.15,2.7c2.9,-5.48 11.91,-3 15.64,-0.28c3.73,2.72 4.87,0.94 4.87,0.94l1.39,15.5Z" style="fill:#ffd6db;fill-rule:nonzero;"/><path d="M911.49,721.32c0,0 3.83,0.12 5.4,6.43c0.74,3 -2.48,6.27 -6.12,9c-4.364,3.184 -9.317,5.471 -14.57,6.73c-10.66,2.6 -32.8,7.56 -39.1,5.52c-3.65,-1.19 -2.86,-4.42 -0.32,-8.1c3.4,1.65 8.28,3.55 11.86,3c6.07,-1 25.45,-2.44 33.18,-14.51c2.279,-3.77 5.624,-6.784 9.61,-8.66l0.06,0.59Z" style="fill:#c8a9b4;fill-rule:nonzero;"/><path d="M885.19,735.56c0,0 -1.7,-17.33 8.49,-24.71c0,0 -6.09,8.29 -8.49,24.71Z" style="fill-opacity:0.1;fill-rule:nonzero;"/><path d="M891.31,720.89c0,0 10.48,-9 11.9,-11.27c1.42,-2.27 -11.58,8.82 -11.9,11.27Z" style="fill-opacity:0.1;fill-rule:nonzero;"/><path d="M868.11,463.06c0,0 -13.51,7 -23.34,4.23c-9.83,-2.77 23.34,-4.23 23.34,-4.23Z" style="fill-opacity:0.1;fill-rule:nonzero;"/><path d="M872.92,477.13c0,0 -2.12,3.8 -15.37,2.87c-13.25,-0.93 15.37,-2.87 15.37,-2.87Z" style="fill-opacity:0.1;fill-rule:nonzero;"/><path d="M829.92,300.97l0.56,-0.78c0.41,-0.59 0.8,-1.2 1.16,-1.82c-0.628,0.829 -1.203,1.697 -1.72,2.6Z" style="fill-rule:nonzero;"/><path d="M824.32,313.97c-2.63,0.35 -5,-1.78 -6.1,-4.12c-1.1,-2.34 -1.38,-5 -2.4,-7.35c-0.297,-0.89 -0.933,-1.627 -1.77,-2.05c-1.62,-0.62 -3.23,0.86 -4.31,2.19c-1.08,1.33 -2.65,2.82 -4.29,2.24c-0.9,-0.438 -1.611,-1.188 -2,-2.11c-1.68,-3 -3.4,-6.17 -3.51,-9.59c0.095,-1.685 0.095,-3.375 0,-5.06c-0.42,-2.95 -2.63,-5.41 -5.18,-7.07c-2.55,-1.66 -5.48,-2.7 -8.25,-4c-1.466,-0.594 -2.789,-1.495 -3.88,-2.64c-1,-1.2 -3.34,-1.07 -2.72,-2.49c0.46,-0.92 1,-1.81 1.5,-2.69c-1.151,1.624 -2.184,3.328 -3.09,5.1c-0.61,1.42 1.71,1.29 2.72,2.49c1.095,1.146 2.421,2.046 3.89,2.64c2.838,1.143 5.595,2.479 8.25,4c2.55,1.67 4.75,4.13 5.18,7.08c0.078,1.683 0.062,3.369 -0.05,5.05c0.11,3.43 1.83,6.58 3.5,9.6c0.393,0.919 1.103,1.668 2,2.11c1.64,0.58 3.21,-0.91 4.29,-2.24c1.08,-1.33 2.69,-2.81 4.31,-2.19c0.837,0.423 1.473,1.16 1.77,2.05c1,2.37 1.3,5 2.4,7.35c1.1,2.35 3.46,4.47 6.1,4.12c1.599,-0.286 2.979,-1.299 3.73,-2.74c0.16,-0.3 0.301,-0.611 0.42,-0.93c-0.697,0.652 -1.57,1.086 -2.51,1.25Z" style="fill-rule:nonzero;"/><path d="M791.11,326.36c0,0 11.51,-0.57 19.17,-0.31c7.66,0.26 19,-5.92 19,-5.92" style="fill-opacity:0.1;fill-rule:nonzero;"/></g><path d="M315.16,406.48c-1.16,-5.9 -12.07,-4.95 -20,-3.43c-0.67,0.13 -1.32,0.26 -1.94,0.4l0.57,-2.37l-3.73,-1.54c-7.33,-3.025 -14.999,-5.15 -22.84,-6.33c-11.48,-1.72 -29.68,-5.41 -40.87,-12.56c-10.17,-6.5 -14.25,-8.38 -17.09,-10.13l0,-1.53c0,-2.9 -0.17,-5.56 -0.39,-7.93c-0.208,-2.179 -0.63,-4.333 -1.26,-6.43c-2.38,-7.89 -7.74,-10.42 -13.11,-15.36c-3.517,-3.313 -7.503,-6.09 -11.83,-8.24c0.44,-2.612 1.206,-5.159 2.28,-7.58c0.15,-0.37 0.31,-0.73 0.46,-1.1c0,-0.05 0,-0.09 0.07,-0.14c0.16,-0.37 0.32,-0.74 0.48,-1.09c7.894,-4.292 12.838,-12.575 12.87,-21.56c-0.001,-6.509 -2.61,-12.754 -7.24,-17.33c-0.387,-0.38 -0.787,-0.75 -1.2,-1.11l1.16,-0.38c2.47,-0.88 5.16,-3.3 4.44,-5.36l-0.36,0c-0.018,-0.146 -0.051,-0.291 -0.1,-0.43c-1.097,-0.037 -2.151,-0.434 -3,-1.13c-1.15,-1.42 -1.5,-3.55 -3.61,-5.54c-0.474,-0.507 -1,-0.963 -1.57,-1.36c-1.538,-1.037 -3.269,-1.754 -5.09,-2.11c0.15,0.1 0.31,0.18 0.46,0.29l0.31,0.24c-4.19,-1 -8.92,-0.85 -12.9,-2.56c-0.957,-0.425 -1.877,-0.93 -2.75,-1.51l0.52,0.14c-2.15,-1.24 -4.08,-2.83 -6.31,-4c-1.236,-0.623 -2.542,-1.096 -3.89,-1.41l1,0.59c-5.913,-1.369 -12.133,-0.37 -17.32,2.78c-6.15,3.62 -10.51,9.43 -13.75,15.54c-5.446,10.256 -8.101,21.765 -7.7,33.37c0.2,5.6 1.1,11.41 -1,16.67c-1.74,4.4 -5.39,7.9 -7.57,12.12c-8.41,16.32 7.08,37.52 -2.41,53.3c-3.43,5.71 -9.57,9.49 -13.75,14.74c-4.18,5.25 -5.69,13.74 -0.12,17.68c4,2.84 9.69,1.92 14.46,3.36c-0.814,4.917 -3.205,9.439 -6.81,12.88l-0.78,-0.15c-0.18,0.17 -0.35,0.35 -0.54,0.51l0.74,0.19l-0.28,0.27c5.218,1.511 10.581,2.463 16,2.84c4.81,0.34 9.9,0.16 14.08,-2.12c2.117,-1.2 3.985,-2.796 5.5,-4.7c0,1 0.07,1.88 0.13,2.79c0.148,3.68 0.671,7.336 1.56,10.91c4.63,16.79 -10,29.95 -10,29.95c-3.583,7.296 -5.269,15.38 -4.9,23.5c0.271,4.917 1.282,9.765 3,14.38c0.14,0.37 0.27,0.73 0.41,1.08c0.27,0.7 0.56,1.38 0.84,2c0.43,1 0.86,1.87 1.29,2.69c0.28,0.56 0.56,1.08 0.83,1.56c0.938,1.728 2.015,3.377 3.22,4.93c1.48,-1.007 2.96,-1.957 4.44,-2.85l0,1.79c0.08,6.19 -0.54,14 -0.54,14c0,0 -4.64,16.57 -5.1,21.34c-0.46,4.77 -2.25,34.27 -2.25,34.27c0,0 -6.26,19.07 -17.84,30.64c-11.58,11.57 -9,44.71 -9,44.71c0,0 -8.11,27.91 -5.33,29.27c0.449,0.142 0.927,0.169 1.39,0.08l0,1.13c-5,3.47 -8.8,6.28 -8.8,6.28c0,0 -1.39,22.92 -3.25,27.35c-1.86,4.43 2.32,9.65 2.32,9.65c0,0 41.25,-1.14 44.84,-1.37c1.65,-0.1 7.15,-1.89 12.84,-4.42c4.89,-1.09 19.65,-6.84 25,-12.19c0.793,-0.71 1.432,-1.574 1.88,-2.54c2.55,-6.36 -20.51,-1.59 -26.77,-1.59c-6.26,0 -6.95,-4.77 -9.85,-8.4c-2.9,-3.63 -0.81,-9.64 -0.81,-9.64l-0.6,-17l2.75,-1.11c0,0 3.71,-14.53 9.73,-21.56c6.02,-7.03 16.69,-33.82 16.92,-35.18c0.23,-1.36 0.46,-3.86 4.86,-10c4.4,-6.14 8.72,-19.26 8.72,-19.26c0,0 10,-31.32 17.61,-47.43c4.67,-9.85 7.27,-27.3 8.58,-39.4c1.439,0.393 2.855,0.867 4.24,1.42c1.385,0.553 2.14,-13.71 3,-29.36c0.511,-7.994 0.447,-16.015 -0.19,-24c-1.22,-13 -8.81,-38.17 -8.36,-61.59c1.83,1.18 3.61,2.3 5.21,3.3c0,-0.59 0.07,-1.17 0.11,-1.76c4.1,2.55 7.06,4.3 7.06,4.3c0,0 24.56,13.61 46.11,13.84c21.55,0.23 25.26,2.72 25.26,2.72l1.36,-5.62l1.93,-0.36c9.08,-1.74 25.19,-5.87 23.86,-12.64Z" style="fill:url(#_Linear2);fill-rule:nonzero;"/><path d="M198.53,276.34l-1.12,-0.83c0.203,0.231 0.359,0.5 0.46,0.79l0.66,0.04Z" style="fill:url(#_Linear3);fill-rule:nonzero;"/><path d="M196.01,275.38l0.67,0l-0.63,-0.47l0.17,0l-1.12,-0.82c0.198,0.229 0.351,0.494 0.45,0.78l0.25,0c0.091,0.161 0.162,0.332 0.21,0.51Z" style="fill:url(#_Linear4);fill-rule:nonzero;"/><rect x="147.39" y="316.42" width="17.83" height="27.83" style="fill:#965d7b;"/><rect x="147.39" y="316.42" width="17.83" height="27.83" style="fill-opacity:0.1;"/><rect x="102.4" y="689.63" width="16.21" height="21.84" style="fill:#e8f4ff;"/><path d="M149.38,316.84c4.35,1.66 9.25,10.45 9.49,17.79c0.1,3.31 -3.79,8.93 -3.79,8.93l4,-0.47c2.05,-0.27 4.71,-0.63 7.53,-1.05c2.36,-0.36 4.83,-0.76 7.15,-1.19c6.37,-1.18 11.58,-2.59 10.15,-3.89c-0.69,-0.63 -0.87,-1.84 -0.69,-3.38c0.433,-2.587 1.179,-5.112 2.22,-7.52c0.31,-0.79 0.65,-1.57 1,-2.31c1.47,-3.36 2.89,-6 2.89,-6c0,0 -13.61,-1 -25,-1.47c-3.89,-0.17 -7.53,-0.28 -10.31,-0.29l-1.09,0c-3.45,-0.02 -5.11,0.26 -3.55,0.85Z" style="fill:#ffc1c7;fill-rule:nonzero;"/><path d="M206.56,504.18c0,0 -2,36.25 -9.45,52.23c-7.45,15.98 -17.11,47.06 -17.11,47.06c0,0 -4.28,13.06 -8.56,19.14c-4.28,6.08 -4.5,8.56 -4.73,9.91c-0.23,1.35 -10.58,27.92 -16.44,34.9c-5.86,6.98 -9.45,21.39 -9.45,21.39c0,0 -25.67,10.8 -28.37,9.45c-2.7,-1.35 5.18,-29 5.18,-29c0,0 -2.48,-32.88 8.78,-44.36c11.26,-11.48 17.34,-30.39 17.34,-30.39c0,0 1.8,-29.28 2.25,-34c0.45,-4.72 4.95,-21.17 4.95,-21.17c0,0 1.35,-17.34 -0.22,-20.71c-1.57,-3.37 55.83,-14.45 55.83,-14.45Z" style="fill:#575a89;fill-rule:nonzero;"/><path d="M206.56,504.18c0,0 -2,36.25 -9.45,52.23c-7.45,15.98 -17.11,47.06 -17.11,47.06c0,0 -4.28,13.06 -8.56,19.14c-4.28,6.08 -4.5,8.56 -4.73,9.91c-0.23,1.35 -10.58,27.92 -16.44,34.9c-5.86,6.98 -9.45,21.39 -9.45,21.39c0,0 -25.67,10.8 -28.37,9.45c-2.7,-1.35 5.18,-29 5.18,-29c0,0 -2.48,-32.88 8.78,-44.36c11.26,-11.48 17.34,-30.39 17.34,-30.39c0,0 1.8,-29.28 2.25,-34c0.45,-4.72 4.95,-21.17 4.95,-21.17c0,0 1.35,-17.34 -0.22,-20.71c-1.57,-3.37 55.83,-14.45 55.83,-14.45Z" style="fill-opacity:0.05;fill-rule:nonzero;"/><path d="M137.89,687.46l0.68,19.47c0,0 -2,6 0.78,9.57c2.78,3.57 3.49,8.33 9.57,8.33c6.08,0 28.49,-4.73 26,1.58c-2.49,6.31 -23.53,14.41 -27,14.63c-3.47,0.22 -43.54,1.35 -43.54,1.35c0,0 -4.05,-5.17 -2.25,-9.56c1.8,-4.39 3.15,-27.14 3.15,-27.14c0,0 31.26,-23.72 32.61,-18.23Z" style="fill:#444053;fill-rule:nonzero;"/><path d="M138.06,687.29l0.67,19.48c0,0 -2,6 0.79,9.56c2.79,3.56 3.49,8.34 9.57,8.34c6.08,0 28.48,-4.73 26,1.57c-2.48,6.3 -23.53,14.41 -27,14.64c-3.47,0.23 -43.57,1.35 -43.57,1.35c0,0 -4,-5.18 -2.25,-9.57c1.75,-4.39 3.11,-27.13 3.11,-27.13c0,0 31.33,-23.76 32.68,-18.24Z" style="fill-opacity:0.05;fill-rule:nonzero;"/><path d="M101.04,702.47c2.7,1.35 28.34,-9.5 28.34,-9.5c0,0 3.6,-14.41 9.46,-21.39c5.86,-6.98 16.21,-33.55 16.43,-34.9c0.22,-1.35 0.45,-3.83 4.73,-9.91c4.28,-6.08 8.56,-19.14 8.56,-19.14c0,0 9.68,-31.07 17.11,-47.05c5.16,-11.1 7.71,-32 8.8,-43.69c0.47,-5.16 0.66,-8.55 0.66,-8.55c0,0 -57.42,11 -55.84,14.41c0.52,1.12 0.72,3.77 0.75,6.83c0.08,6.14 -0.53,13.88 -0.53,13.88c0,0 -4.5,16.44 -4.95,21.17c-0.45,4.73 -2.25,34 -2.25,34c0,0 -6.08,18.91 -17.34,30.39c-11.26,11.48 -8.78,44.36 -8.78,44.36c0,0 -7.81,27.74 -5.15,29.09Z" style="fill:#575a89;fill-rule:nonzero;"/><path d="M161.38,546.88c0,0 -11.71,-3.15 -15.76,0.45c-4.05,3.6 15.76,-0.45 15.76,-0.45Z" style="fill-opacity:0.1;fill-rule:nonzero;"/><path d="M161.16,561.74c0,0 -18.47,-4 -18.69,1.8c-0.22,5.8 18.69,-1.8 18.69,-1.8Z" style="fill-opacity:0.1;fill-rule:nonzero;"/><path d="M153.73,577.97c0,0 -6.35,5.39 -10.35,3.59c-4,-1.8 10.35,-3.59 10.35,-3.59Z" style="fill-opacity:0.1;fill-rule:nonzero;"/><path d="M136.62,607.22c0,0 12.83,4.73 9.9,9.69c-2.93,4.96 -5.18,5.63 -6.3,4.27c-1.12,-1.36 -3.6,-13.96 -3.6,-13.96Z" style="fill-opacity:0.1;fill-rule:nonzero;"/><path d="M126.48,691.66l0.68,19.48c0,0 -2,6 0.79,9.56c2.79,3.56 3.49,8.34 9.57,8.34c6.08,0 28.48,-4.73 26,1.57c-2.48,6.3 -23.53,14.41 -27,14.64c-3.47,0.23 -43.57,1.35 -43.57,1.35c0,0 -4.05,-5.18 -2.25,-9.57c1.8,-4.39 3.15,-27.13 3.15,-27.13c0,0 31.28,-23.76 32.63,-18.24Z" style="fill:#444053;fill-rule:nonzero;"/><path d="M119.95,717.78c0,0 -0.56,3.83 -12.61,0.11c-12.05,-3.72 12.61,-0.11 12.61,-0.11Z" style="fill-opacity:0.1;fill-rule:nonzero;"/><path d="M98,720.59c0,0 -2.7,3.72 6.87,5.41c9.57,1.69 -6.87,-5.41 -6.87,-5.41Z" style="fill-opacity:0.1;fill-rule:nonzero;"/><path d="M100.59,717.66c0,0 9.46,8.22 12.38,8.22" style="fill-opacity:0.1;fill-rule:nonzero;"/><path d="M152.85,315.97c4.18,7.58 11.84,6.27 21.52,12.72c3.3,2.21 7.74,-0.94 11.06,-2.64c1.75,-4.36 3.87,-8.32 3.87,-8.32c0,0 -26.18,-1.85 -36.45,-1.76Z" style="fill-opacity:0.1;fill-rule:nonzero;"/><path d="M149.83,302.36c0,13.462 11.078,24.54 24.54,24.54c13.462,0 24.54,-11.078 24.54,-24.54c0,-13.458 -11.072,-24.535 -24.53,-24.54c-0.04,0 -0.08,0 -0.12,0c-13.402,0 -24.43,11.028 -24.43,24.43c0,0.036 0,0.073 0,0.11Z" style="fill:#ffc1c7;fill-rule:nonzero;"/><path d="M139.32,522.79c0.52,1.12 0.72,3.77 0.75,6.83c21.56,-13.38 41.49,-14.29 54.43,-12.69c0.47,-5.16 0.66,-8.55 0.66,-8.55c0,0 -57.42,11.03 -55.84,14.41Z" style="fill-opacity:0.1;fill-rule:nonzero;"/><path d="M126.45,504.22c0.466,9.525 3.683,18.714 9.26,26.45c39,-27 73.86,-11.93 73.86,-11.93c0,0 2.07,-13.6 2.88,-29.13c0.487,-7.925 0.427,-15.874 -0.18,-23.79c-1.27,-13.71 -9.53,-41.09 -7.95,-65.52c0.7,-10.75 4.87,-20.77 4.72,-29.06c0,-2.87 -0.16,-5.51 -0.37,-7.86c-0.202,-2.161 -0.614,-4.298 -1.23,-6.38c-2.3,-7.84 -7.52,-10.34 -12.73,-15.24c-3.406,-3.282 -7.282,-6.039 -11.5,-8.18c-8.46,-4.13 -17,-4.13 -24.34,1.05c-1.373,0.975 -2.658,2.07 -3.84,3.27c-1.509,1.542 -2.878,3.215 -4.09,5c-0.21,0.29 -0.4,0.59 -0.59,0.88c-1.08,1.69 -2.08,4.75 -3,8.54c-3.39,14.25 -5.36,38.74 -5.36,38.74c0,0 -3.83,29.59 -2.64,49.29c0.144,3.651 0.65,7.279 1.51,10.83c4.51,16.66 -9.68,29.72 -9.68,29.72c-3.479,7.263 -5.105,15.276 -4.73,23.32Z" style="fill:#ff6584;fill-rule:nonzero;"/><path d="M282.97,422.02c0,0 2.37,-0.34 5.74,-1c8.81,-1.76 24.51,-5.86 23.21,-12.57c-1.12,-5.85 -11.72,-4.91 -19.43,-3.4c-4.55,0.88 -8.09,2 -8.09,2l-1.43,14.97Z" style="fill:#ffc1c7;fill-rule:nonzero;"/><path d="M166.38,375.61c4.73,3.6 16.44,13.51 25.44,20.49c5.07,3.93 12.14,8.57 17.35,11.89c0.7,-10.76 1.19,-21 1.05,-29.25c-3.54,-2.86 -4.72,-6.58 -10.06,-12.81c-9.46,-11 -26.35,-14.86 -26.35,-14.86c-11.23,-2.48 -12.13,20.9 -7.43,24.54Z" style="fill-opacity:0.1;fill-rule:nonzero;"/><path d="M282.97,422.02c0,0 2.37,-0.34 5.74,-1l3.78,-16c-4.55,0.88 -8.09,2 -8.09,2l-1.43,15Z" style="fill-opacity:0.1;fill-rule:nonzero;"/><path d="M173.84,349.27c0,0 16.89,3.82 26.35,14.86c9.46,11.04 6,6 25.44,18.69c10.87,7.09 28.55,10.75 39.71,12.45c7.626,1.181 15.079,3.293 22.19,6.29l3.62,1.52l-5.63,23.89c0,0 -3.6,-2.48 -24.54,-2.7c-20.94,-0.22 -44.81,-13.74 -44.81,-13.74c0,0 -15.31,-9.23 -24.32,-16.21c-9.01,-6.98 -20.71,-16.91 -25.47,-20.51c-4.76,-3.6 -3.8,-27.02 7.46,-24.54Z" style="fill:#e8f4ff;fill-rule:nonzero;"/><path d="M147.38,354.13c3.28,2 7.25,1.18 12,-4.71c12.78,-15.94 34,-0.06 48.08,9.38c-2.3,-7.83 -7.52,-10.34 -12.73,-15.24c-15.1,-14.19 -32,-15.94 -43.77,1.15c-0.21,0.29 -0.4,0.59 -0.59,0.88c-1.1,1.69 -2.1,4.75 -2.99,8.54Z" style="fill-opacity:0.1;fill-rule:nonzero;"/><path d="M147.38,352.33c3.28,2 7.25,1.18 12,-4.71c0.115,-0.156 0.239,-0.307 0.37,-0.45c1.828,-2.254 4.189,-4.018 6.87,-5.13c2.27,-0.906 4.709,-1.312 7.15,-1.19c11.27,0.36 24.14,9.74 33.69,16.15c-2.3,-7.84 -7.52,-10.34 -12.73,-15.24c-3.406,-3.282 -7.282,-6.039 -11.5,-8.18c-8.46,-4.13 -17,-4.13 -24.34,1.05c-1.373,0.975 -2.658,2.07 -3.84,3.27c-1.509,1.542 -2.878,3.215 -4.09,5c-0.21,0.29 -0.4,0.59 -0.59,0.88c-1.1,1.7 -2.1,4.76 -2.99,8.55Z" style="fill:#ff6584;fill-rule:nonzero;"/><path d="M126.45,502.42c0.466,9.525 3.683,18.714 9.26,26.45c39,-27 73.86,-11.93 73.86,-11.93c0,0 2.07,-13.6 2.88,-29.13c-14.85,-0.13 -57.14,0.22 -71.33,8c-4.692,2.618 -9.6,4.829 -14.67,6.61Z" style="fill-opacity:0.1;fill-rule:nonzero;"/><path d="M126.45,504.22c0.466,9.525 3.683,18.714 9.26,26.45c39,-27 73.86,-11.93 73.86,-11.93c0,0 2.07,-13.6 2.88,-29.13c-14.85,-0.13 -57.14,0.22 -71.33,8c-4.692,2.618 -9.6,4.829 -14.67,6.61Z" style="fill:#e8f4ff;fill-rule:nonzero;"/><path d="M198.61,279.32l-1.09,-0.82c0.198,0.229 0.351,0.494 0.45,0.78l0.64,0.04Z" style="fill-opacity:0.1;fill-rule:nonzero;"/><path d="M139.38,440.36c1.338,-1.364 2.54,-2.854 3.59,-4.45c9.42,-13.92 11.35,-31.74 7.7,-48c-0.81,-3.61 -1.87,-7.43 -0.57,-10.91c1.78,-4.78 7.38,-7.27 9.93,-11.71c3.11,-5.43 0.95,-12 -0.3,-18.14c0,-0.25 -0.09,-0.48 -0.14,-0.72c-0.22,-1.11 -0.39,-2.24 -0.52,-3.36c-0.777,-6.755 -0.067,-13.598 2.08,-20.05c0.11,-0.33 0.22,-0.66 0.34,-1c0.713,-2.022 1.638,-3.963 2.76,-5.79c2.3,-3.71 5.52,-6.79 9.78,-7.88c1.207,-0.149 2.362,-0.58 3.37,-1.26c2.53,-2.21 -0.35,-6 -0.92,-9.26c-0.7,-3.82 2.28,-7.46 5.8,-9.36c3,-1.61 6.35,-2.33 9.6,-3.34c-4.617,-4.72 -10.948,-7.384 -17.55,-7.384c-13.468,0 -24.55,11.083 -24.55,24.55c0,4.869 1.448,9.63 4.16,13.674l-1.09,0c-3.37,0 -5,0.27 -3.47,0.86c4.35,1.66 5.41,13.72 5.65,21.06c-1.509,1.542 -2.878,3.215 -4.09,5c-0.21,0.29 -0.4,0.59 -0.59,0.88c-1.08,1.69 -2.08,4.75 -3,8.54c-3.39,14.25 -5.36,38.74 -5.36,38.74c0,0 -3.8,29.61 -2.61,49.31Z" style="fill-opacity:0.1;fill-rule:nonzero;"/><path d="M195.72,277.6c1.83,2.17 -1.16,5.1 -3.88,6.08c-3.77,1.37 -7.84,2 -11.36,3.93c-3.52,1.93 -6.49,5.54 -5.81,9.36c0.59,3.25 3.46,7 0.93,9.26c-1.01,0.678 -2.164,1.113 -3.37,1.27c-6.36,1.62 -10.39,7.67 -12.54,13.66c-2.805,7.813 -3.462,16.237 -1.9,24.39c1.21,6.33 3.67,13.22 0.44,18.86c-2.55,4.45 -8.15,6.93 -9.93,11.71c-1.3,3.48 -0.24,7.3 0.57,10.91c3.65,16.24 1.72,34.06 -7.7,48c-1.816,2.956 -4.304,5.444 -7.26,7.26c-4.06,2.25 -9,2.43 -13.68,2.1c-5.273,-0.38 -10.49,-1.329 -15.56,-2.83c3.984,-3.529 6.621,-8.334 7.46,-13.59c-4.64,-1.44 -10.15,-0.52 -14.05,-3.34c-5.41,-3.9 -3.95,-12.33 0.11,-17.54c4.06,-5.21 10,-9 13.37,-14.62c9.21,-15.66 -5.84,-36.7 2.33,-52.88c2.12,-4.2 5.67,-7.67 7.36,-12c2,-5.22 1.15,-11 0.95,-16.54c-0.39,-11.496 2.19,-22.901 7.49,-33.11c3.14,-6.06 7.38,-11.82 13.35,-15.41c5.97,-3.59 13.91,-4.68 20.1,-1.46c2.74,1.42 5,3.58 7.85,4.82c5.46,2.39 12.38,1.1 17.18,4.55c4.8,3.45 2.61,7.88 8.64,8" style="fill:#965d7b;fill-rule:nonzero;"/><path d="M171.1,447.97c-2.34,1.17 -7,11.72 -17.58,19.34c-10.58,7.62 17.58,-19.34 17.58,-19.34Z" style="fill-opacity:0.1;fill-rule:nonzero;"/><path d="M175.79,426.87c0,0 -13.48,28.13 -29.3,32.23c-15.82,4.1 29.3,-32.23 29.3,-32.23Z" style="fill-opacity:0.1;fill-rule:nonzero;"/><path d="M200.71,495.17c0,0 -4.5,14.11 -3.6,15.31c0.9,1.2 3.6,-15.31 3.6,-15.31Z" style="fill-opacity:0.1;fill-rule:nonzero;"/><path d="M192,495.77c0,0 -4.5,14.11 -3.6,15.31c0.9,1.2 3.6,-15.31 3.6,-15.31Z" style="fill-opacity:0.1;fill-rule:nonzero;"/><path d="M182.1,495.47c0,0 -4.51,14.11 -3.61,15.31c0.9,1.2 3.61,-15.31 3.61,-15.31Z" style="fill-opacity:0.1;fill-rule:nonzero;"/><path d="M134.01,506.64c0,0 2.89,14.52 4.26,15.14c1.37,0.62 -4.26,-15.14 -4.26,-15.14Z" style="fill-opacity:0.1;fill-rule:nonzero;"/><path d="M150.82,500.33c0,0 2.89,14.53 4.26,15.14c1.37,0.61 -4.26,-15.14 -4.26,-15.14Z" style="fill-opacity:0.1;fill-rule:nonzero;"/><path d="M141.22,504.54c0,0 2.89,14.52 4.26,15.14c1.37,0.62 -4.26,-15.14 -4.26,-15.14Z" style="fill-opacity:0.1;fill-rule:nonzero;"/><path d="M226.23,390.55c-0.75,0.15 2.25,7.35 -6.31,7.8c-8.56,0.45 6.31,-7.8 6.31,-7.8Z" style="fill-opacity:0.1;fill-rule:nonzero;"/><path d="M283.72,408.71c0,0 -3.3,6.9 -8.71,8.25c-5.41,1.35 8.71,-8.25 8.71,-8.25Z" style="fill-opacity:0.1;fill-rule:nonzero;"/><path d="M257.75,404.36c0,0 7.21,7.5 -2.85,9.15c-10.06,1.65 2.85,-9.15 2.85,-9.15Z" style="fill-opacity:0.1;fill-rule:nonzero;"/><path d="M200.56,375.54c0,0 -14.71,-4.51 -17,-1.21c-2.29,3.3 17,1.21 17,1.21Z" style="fill-opacity:0.1;fill-rule:nonzero;"/><path d="M174.81,393.97c-2.35,1.17 -7,11.72 -17.59,19.34c-10.59,7.62 17.59,-19.34 17.59,-19.34Z" style="fill-opacity:0.1;fill-rule:nonzero;"/><g opacity="0.1"><path d="M166.04,263.6c-2.58,-1.13 -4.71,-3 -7.13,-4.42c1.312,0.311 2.582,0.781 3.78,1.4c2.16,1.12 4.05,2.7 6.13,3.93c-0.951,-0.222 -1.882,-0.526 -2.78,-0.91Z" style="fill-rule:nonzero;"/><path d="M196.38,277.97l-0.65,-0.05c-0.098,-0.282 -0.247,-0.543 -0.44,-0.77l1.09,0.82Z" style="fill-rule:nonzero;"/><path d="M107.18,425.71c-0.05,0.31 -0.13,0.62 -0.19,0.94c-3.33,-0.37 -6.68,-0.57 -9.31,-2.44c3.08,0.62 6.47,0.56 9.5,1.5Z" style="fill-rule:nonzero;"/><path d="M115.28,442.11c4.67,0.34 9.62,0.16 13.68,-2.1c2.956,-1.813 5.443,-4.297 7.26,-7.25c9.42,-13.93 11.35,-31.75 7.7,-48c-0.81,-3.61 -1.87,-7.44 -0.58,-10.91c1.79,-4.78 7.39,-7.27 9.94,-11.71c3.23,-5.64 0.77,-12.53 -0.45,-18.86c-1.557,-8.153 -0.901,-16.576 1.9,-24.39c2.15,-6 6.18,-12 12.55,-13.67c1.205,-0.155 2.359,-0.586 3.37,-1.26c2.52,-2.22 -0.35,-6 -0.93,-9.26c-0.69,-3.82 2.29,-7.47 5.8,-9.36c3.51,-1.89 7.59,-2.56 11.36,-3.93c2.41,-0.87 5,-3.27 4.33,-5.31l0.64,0.05l-1.08,-0.82c0.193,0.227 0.343,0.488 0.44,0.77c-5.2,-0.45 -3.35,-4.63 -8,-8l-0.45,-0.29c1.79,0.354 3.491,1.065 5,2.09c4.64,3.34 2.79,7.53 8,8c0.7,2 -1.92,4.44 -4.32,5.31c-3.77,1.37 -7.84,2 -11.36,3.93c-3.52,1.93 -6.49,5.54 -5.81,9.36c0.59,3.25 3.46,7 0.93,9.26c-1.01,0.678 -2.164,1.113 -3.37,1.27c-6.36,1.62 -10.39,7.67 -12.54,13.66c-2.808,7.819 -3.467,16.25 -1.91,24.41c1.22,6.33 3.68,13.22 0.45,18.86c-2.55,4.45 -8.15,6.93 -9.93,11.71c-1.3,3.48 -0.24,7.3 0.57,10.91c3.65,16.24 1.72,34.06 -7.7,48c-1.819,2.954 -4.306,5.441 -7.26,7.26c-4.06,2.25 -9,2.43 -13.68,2.1c-5.273,-0.38 -10.49,-1.329 -15.56,-2.83c0.19,-0.16 0.35,-0.34 0.53,-0.51c3.451,0.761 6.954,1.266 10.48,1.51Z" style="fill-rule:nonzero;"/></g><path d="M812.11,63.75c0,0 -84.19,-5.07 -74.27,53.93c0,0 -2,10.43 7.48,15.16c0,0 0.15,-4.37 8.64,-2.89c3.019,0.506 6.087,0.654 9.14,0.44c4.133,-0.279 8.064,-1.902 11.19,-4.62c3.126,-2.718 23.67,-9.77 32.87,-48.46c0,0 6.81,-8.43 6.54,-10.6l-14.21,6.06c0,0 4.86,10.26 1,18.77c0,0 -0.46,-18.39 -3.19,-18c-0.56,0.09 -7.39,3.55 -7.39,3.55c0,0 8.36,17.86 2,30.84c0,0 2.4,-22 -4.65,-29.55l-10,5.84c0,0 9.77,18.45 3.15,33.49c0,0 1.7,-23.08 -5.25,-32.06l-9.06,7.07c0,0 9.28,18.25 3.66,30.69c0,0 -0.73,-26.87 -5.55,-28.9c0,0 -7.92,7 -9.13,9.87c0,0 6.28,13.19 2.38,20.16c0,0 -2.39,-17.91 -4.35,-18c0,0 -7.9,11.86 -8.72,20c0,0 0.34,-12.09 6.81,-21.13c0,0 -7.64,1.31 -12.1,6.27c0,0 1.23,-8.39 14,-9.12c0,0 6.52,-9 8.27,-9.54c0,0 -12.75,-1.07 -20.48,2.36c0,0 6.81,-7.91 22.82,-4.32l9,-7.3c0,0 -16.79,-2.3 -23.9,0.24c0,0 8.19,-7 26.31,-1.9l9.74,-5.83c0,0 -14.31,-3.08 -22.83,-2c0,0 9,-4.85 25.68,0.41l7,-3.13c0,0 -10.48,-2.06 -13.55,-2.38c-3.07,-0.32 -3.24,-1.17 -3.24,-1.17c6.642,-1.113 13.465,-0.355 19.7,2.19c6.235,2.545 14.76,-5.5 14.49,-6.44Z" style="fill:#536dfe;fill-rule:nonzero;"/><path d="M725.75,37.52c0,0 -38,-2.3 -33.56,24.36c0,0 -0.89,4.71 3.38,6.85c0,0 0.07,-2 3.9,-1.3c1.367,0.23 2.757,0.297 4.14,0.2c1.848,-0.142 3.601,-0.875 5,-2.09c1.399,-1.215 10.69,-4.42 14.85,-21.9c0,0 3.08,-3.81 3,-4.79l-6.42,2.74c0,0 2.19,4.64 0.47,8.48c0,0 -0.21,-8.31 -1.44,-8.11c-0.26,0 -3.34,1.6 -3.34,1.6c0,0 3.77,8.07 0.93,13.93c0,0 1.08,-9.94 -2.11,-13.34l-4.52,2.63c0,0 4.41,8.34 1.42,15.14c0,0 0.77,-10.43 -2.37,-14.49l-4.09,3.19c0,0 4.14,8.21 1.61,13.85c0,0 -0.33,-12.14 -2.5,-13c0,0 -3.58,3.15 -4.13,4.45c0,0 2.84,6 1.08,9.11c0,0 -1.08,-8.09 -2,-8.12c0,0 -3.57,5.36 -3.94,9c0.173,-3.398 1.235,-6.691 3.08,-9.55c-2.061,0.388 -3.963,1.372 -5.47,2.83c-1.507,1.458 0.56,-3.79 6.35,-4.12c0,0 2.95,-4.06 3.74,-4.31c0,0 -5.76,-0.48 -9.26,1.07c0,0 3.08,-3.58 10.31,-2l4.05,-3.3c0,0 -7.59,-1 -10.8,0.11c0,0 3.7,-3.17 11.88,-0.86l4.41,-2.64c0,0 -6.47,-1.39 -10.32,-0.89c0,0 4.06,-2.19 11.61,0.19l3.14,-1.42c0,0 -4.73,-0.93 -6.12,-1.07c-1.39,-0.14 -1.46,-0.53 -1.46,-0.53c3.002,-0.499 6.084,-0.153 8.9,1c2.816,1.153 6.72,-2.45 6.6,-2.9Z" style="fill:#536dfe;fill-rule:nonzero;"/><ellipse cx="1057.84" cy="719.99" rx="26.93" ry="4.55" style="fill:#536dfe;fill-opacity:0.1;"/><ellipse cx="31.52" cy="795.68" rx="26.93" ry="4.55" style="fill:#536dfe;fill-opacity:0.1;"/><ellipse cx="187.85" cy="801.38" rx="26.93" ry="4.55" style="fill:#6c63ff;fill-opacity:0.1;"/><ellipse cx="998.9" cy="768.75" rx="40.21" ry="6.8" style="fill:#536dfe;"/><path d="M1015.52,757.63c1.83,-1.496 3.166,-3.511 3.83,-5.78c0.5,-2.3 -0.48,-5.06 -2.68,-5.9c-2.46,-0.94 -5.09,0.77 -7.08,2.49c-1.99,1.72 -4.28,3.69 -6.89,3.32c2.729,-2.469 3.966,-6.2 3.25,-9.81c-0.117,-0.737 -0.432,-1.428 -0.91,-2c-1.36,-1.46 -3.84,-0.83 -5.47,0.32c-5.2,3.65 -6.65,10.72 -6.68,17.07c-0.52,-2.29 -0.08,-4.68 -0.1,-7c-0.02,-2.32 -0.65,-5 -2.64,-6.22c-1.223,-0.677 -2.602,-1.022 -4,-1c-2.34,-0.09 -4.94,0.15 -6.53,1.86c-2,2.12 -1.47,5.68 0.25,8c1.72,2.32 4.35,3.81 6.77,5.42c1.936,1.154 3.587,2.73 4.83,4.61c0.15,0.263 0.271,0.541 0.36,0.83l14.66,0c3.273,-1.659 6.31,-3.748 9.03,-6.21Z" style="fill:#536dfe;fill-rule:nonzero;"/><path d="M44.08,673.78c0,0 5.49,7.18 -2.53,18c-8.02,10.82 -14.65,20 -12,26.76c0,0 12.12,-20.14 22,-20.42c9.88,-0.28 3.38,-12.23 -7.47,-24.34Z" style="fill:#536dfe;fill-rule:nonzero;"/><path d="M44.08,673.78c0.481,0.691 0.858,1.449 1.12,2.25c9.62,11.3 14.75,21.85 5.5,22.12c-8.61,0.24 -18.95,15.65 -21.42,19.54c0.08,0.29 0.18,0.59 0.29,0.88c0,0 12.12,-20.14 22,-20.42c9.88,-0.28 3.36,-12.26 -7.49,-24.37Z" style="fill-opacity:0.1;fill-rule:nonzero;"/><path d="M54.29,682.97c0,2.53 -0.28,4.58 -0.63,4.58c-0.35,0 -0.63,-2 -0.63,-4.58c0,-2.58 0.35,-1.33 0.7,-1.33c0.35,0 0.56,-1.24 0.56,1.33Z" style="fill:#ffd037;fill-rule:nonzero;"/><path d="M57.8,685.97c-2.22,1.21 -4.16,1.94 -4.33,1.64c-0.17,-0.3 1.5,-1.54 3.72,-2.75c2.22,-1.21 1.35,-0.33 1.51,0c0.16,0.33 1.32,-0.12 -0.9,1.11Z" style="fill:#ffd037;fill-rule:nonzero;"/><path d="M15.06,673.78c0,0 -5.49,7.18 2.54,18c8.03,10.82 14.65,20 12,26.76c0,0 -12.11,-20.14 -22,-20.42c-9.89,-0.28 -3.38,-12.23 7.46,-24.34Z" style="fill:#536dfe;fill-rule:nonzero;"/><path d="M15.06,673.78c-0.477,0.694 -0.854,1.451 -1.12,2.25c-9.62,11.3 -14.74,21.85 -5.5,22.12c8.62,0.24 19,15.65 21.43,19.54c-0.09,0.29 -0.18,0.59 -0.3,0.88c0,0 -12.11,-20.14 -22,-20.42c-9.89,-0.28 -3.35,-12.26 7.49,-24.37Z" style="fill-opacity:0.1;fill-rule:nonzero;"/><path d="M4.85,682.97c0,2.53 0.28,4.58 0.64,4.58c0.36,0 0.63,-2 0.63,-4.58c0,-2.58 -0.36,-1.33 -0.71,-1.33c-0.35,0 -0.56,-1.24 -0.56,1.33Z" style="fill:#ffd037;fill-rule:nonzero;"/><path d="M1.38,685.97c2.22,1.21 4.15,1.94 4.32,1.64c0.17,-0.3 -1.5,-1.54 -3.72,-2.75c-2.22,-1.21 -1.34,-0.33 -1.51,0c-0.17,0.33 -1.34,-0.12 0.91,1.11Z" style="fill:#ffd037;fill-rule:nonzero;"/><path d="M6.6,717.63c0,0 15.36,-0.47 20,-3.77c4.64,-3.3 23.62,-7.23 24.78,-1.89c1.16,5.34 23.09,26.29 5.74,26.43c-17.35,0.14 -40.29,-2.7 -44.91,-5.52c-4.62,-2.82 -5.61,-15.25 -5.61,-15.25Z" style="fill:#a8a8a8;fill-rule:nonzero;"/><path d="M57.38,736.51c-17.34,0.14 -40.29,-2.7 -44.91,-5.52c-3.52,-2.14 -4.92,-9.83 -5.39,-13.38l-0.51,0c0,0 1,12.39 5.59,15.2c4.59,2.81 27.57,5.66 44.91,5.52c5,0 6.74,-1.82 6.64,-4.46c-0.66,1.61 -2.57,2.61 -6.33,2.64Z" style="fill-opacity:0.2;fill-rule:nonzero;"/><defs><linearGradient id="_Linear1" x1="0" y1="0" x2="1" y2="0" gradientUnits="userSpaceOnUse" gradientTransform="matrix(3.01667e-14,-492.66,492.66,3.01667e-14,765.2,749.98)"><stop offset="0" style="stop-color:#808080;stop-opacity:0.25"/><stop offset="0.54" style="stop-color:#808080;stop-opacity:0.12"/><stop offset="1" style="stop-color:#808080;stop-opacity:0.1"/></linearGradient><linearGradient id="_Linear2" x1="0" y1="0" x2="1" y2="0" gradientUnits="userSpaceOnUse" gradientTransform="matrix(3.00859e-14,-491.34,491.34,3.00859e-14,201.11,747.32)"><stop offset="0" style="stop-color:#808080;stop-opacity:0.25"/><stop offset="0.54" style="stop-color:#808080;stop-opacity:0.12"/><stop offset="1" style="stop-color:#808080;stop-opacity:0.1"/></linearGradient><linearGradient id="_Linear3" x1="0" y1="0" x2="1" y2="0" gradientUnits="userSpaceOnUse" gradientTransform="matrix(5.08228e-17,-0.83,0.83,5.08228e-17,197.97,276.34)"><stop offset="0" style="stop-color:#808080;stop-opacity:0.25"/><stop offset="0.54" style="stop-color:#808080;stop-opacity:0.12"/><stop offset="1" style="stop-color:#808080;stop-opacity:0.1"/></linearGradient><linearGradient id="_Linear4" x1="0" y1="0" x2="1" y2="0" gradientUnits="userSpaceOnUse" gradientTransform="matrix(7.83774e-17,-1.28,1.28,7.83774e-17,195.89,275.43)"><stop offset="0" style="stop-color:#808080;stop-opacity:0.25"/><stop offset="0.54" style="stop-color:#808080;stop-opacity:0.12"/><stop offset="1" style="stop-color:#808080;stop-opacity:0.1"/></linearGradient></defs></svg>