<?xml version="1.0" encoding="UTF-8" standalone="no"?><!DOCTYPE svg PUBLIC "-//W3C//DTD SVG 1.1//EN" "http://www.w3.org/Graphics/SVG/1.1/DTD/svg11.dtd"><svg width="100%" height="100%" viewBox="0 0 888 682" version="1.1" xmlns="http://www.w3.org/2000/svg" xmlns:xlink="http://www.w3.org/1999/xlink" xml:space="preserve" xmlns:serif="http://www.serif.com/" style="fill-rule:evenodd;clip-rule:evenodd;stroke-linejoin:round;stroke-miterlimit:2;"><rect id="Artboard1" x="0" y="0" width="888" height="681.794" style="fill:none;"/><path d="M887.675,396.659c-0.029,-54.059 -44.52,-98.527 -98.58,-98.527c-54.079,0 -98.579,44.5 -98.579,98.579c0,13.323 2.7,26.508 7.938,38.758c-0.096,-0.108 -0.196,-0.212 -0.292,-0.32c4.379,10.206 10.449,19.599 17.954,27.783c0.023,0.025 0.046,0.049 0.068,0.074c0.606,0.66 1.215,1.316 1.838,1.96c18.189,18.971 43.25,29.875 69.529,30.253l-3.331,180.929l10.292,0l-2.083,-119.415l14.887,-7.838l-2.271,-4.313l-12.711,6.692l-0.978,-56.064c53.211,-1.22 96.318,-45.326 96.319,-98.551Z" style="fill:#303f9f;fill-rule:nonzero;"/><path d="M595.087,348.612c-0.034,-63.353 -52.174,-115.465 -115.526,-115.465c-63.376,0 -115.527,52.15 -115.527,115.526c0,15.613 3.165,31.065 9.303,45.42c-0.113,-0.126 -0.229,-0.248 -0.342,-0.374c5.131,11.96 12.245,22.968 21.041,32.559c0.026,0.029 0.053,0.057 0.08,0.086c0.709,0.774 1.423,1.543 2.153,2.297c21.317,22.233 50.685,35.012 81.483,35.454l-3.904,212.033l12.06,0l-2.441,-139.944l17.446,-9.185l-2.661,-5.055l-14.896,7.842l-1.146,-65.701c62.359,-1.43 112.876,-53.118 112.877,-115.493Z" style="fill:#303f9f;fill-rule:nonzero;"/><path d="M263.259,303.418c-0.038,-72.094 -59.373,-131.397 -131.467,-131.397c-72.12,0 -131.467,59.347 -131.467,131.467c0,17.767 3.602,35.351 10.587,51.687c-0.129,-0.143 -0.261,-0.282 -0.389,-0.426c5.839,13.61 13.934,26.137 23.944,37.052c0.03,0.033 0.06,0.065 0.09,0.098c0.808,0.88 1.62,1.756 2.451,2.614c24.258,25.3 57.678,39.842 92.725,40.346l-4.442,241.289l13.725,0l-2.778,-159.253l19.853,-10.453l-3.029,-5.752l-16.951,8.924l-1.304,-74.767c70.963,-1.627 128.451,-60.447 128.452,-131.429Z" style="fill:#303f9f;fill-rule:nonzero;"/><circle cx="245.559" cy="187.616" r="172.312" style="fill:#42a5f5;"/><path d="M118.329,72.526c-9.152,21.41 -13.872,44.454 -13.872,67.738c0,94.535 77.791,172.326 172.326,172.326c49.13,0 95.987,-21.011 128.669,-57.695c-27.066,63.32 -89.597,104.595 -158.458,104.595c-94.536,0 -172.327,-77.791 -172.327,-172.326c0,-42.263 15.548,-83.084 43.662,-114.638Z" style="fill-opacity:0.2;fill-rule:nonzero;"/><path d="M246.032,187.616l0.474,0l8.521,488.532l-17.989,0l8.994,-488.532Z" style="fill:#3f3d56;fill-rule:nonzero;"/><path d="M277.407,453.717l-3.969,-7.54l-28.484,14.996l3.969,7.54l28.484,-14.996Z" style="fill:#3f3d56;"/><path d="M509.115,671.579c0,0 0.622,-13.027 13.367,-11.513" style="fill:#3f3d56;fill-rule:nonzero;"/><circle cx="505.514" cy="652.803" r="6.379" style="fill:#42a5f5;"/><rect x="504.476" y="663.545" width="1.801" height="12.604" style="fill:#3f3d56;"/><path d="M67.083,669.778c0,0 0.622,-13.027 13.366,-11.513" style="fill:#3f3d56;fill-rule:nonzero;"/><circle cx="63.482" cy="651.003" r="6.379" style="fill:#42a5f5;"/><rect x="62.444" y="661.744" width="1.801" height="12.604" style="fill:#3f3d56;"/><path d="M171.514,670.678c0,0 0.622,-13.027 13.367,-11.512" style="fill:#3f3d56;fill-rule:nonzero;"/><circle cx="167.913" cy="651.903" r="6.379" style="fill:#42a5f5;"/><rect x="166.875" y="662.644" width="1.801" height="12.604" style="fill:#3f3d56;"/><path d="M640.987,92.778l12.795,-10.233c-9.94,-1.097 -14.024,4.324 -15.695,8.615c-7.766,-3.225 -16.219,1.001 -16.219,1.001l25.6,9.294c-1.291,-3.449 -3.54,-6.46 -6.481,-8.677Z" style="fill:#8b88ab;fill-rule:nonzero;"/><path d="M772.426,197.993l12.795,-10.234c-9.94,-1.096 -14.024,4.325 -15.695,8.615c-7.765,-3.224 -16.219,1.002 -16.219,1.002l25.6,9.293c-1.291,-3.449 -3.54,-6.459 -6.481,-8.676Z" style="fill:#8b88ab;fill-rule:nonzero;"/><path d="M656.944,243.523l12.795,-10.233c-9.94,-1.097 -14.024,4.324 -15.695,8.615c-7.766,-3.225 -16.219,1.001 -16.219,1.001l25.6,9.294c-1.291,-3.449 -3.54,-6.46 -6.481,-8.677Z" style="fill:#8b88ab;fill-rule:nonzero;"/><path d="M359.255,617.879c0,0 10.022,29.348 5.727,40.085l12.884,11.453l7.874,-10.022c0,0 -8.59,-8.589 -7.874,-15.031c0.716,-6.442 1.432,-29.348 1.432,-29.348l-20.043,2.863Z" style="fill:#ffb9b9;fill-rule:nonzero;"/><path d="M407.21,675.139c-0.585,0.342 -1.144,0.666 -1.657,0.963l-44.428,0c-0.841,-0.481 -1.301,-1.437 -1.152,-2.394c0.207,-1.063 0.738,-3.223 1.395,-5.708c1.558,-5.879 3.844,-13.576 4.339,-12.757c0.001,0 0.001,0 0.001,0c0.004,0 0.008,0.004 0.008,0.009c0,0 0,0 0,0c0.694,1.279 2.125,7.004 5.708,6.293c3.583,-0.72 9.309,-2.152 9.309,-2.152c0,0 -2.044,-4.591 -0.09,-6.446c0.42,-0.39 0.952,-0.639 1.521,-0.711c4.295,-0.711 4.295,5.726 4.295,5.726l15.745,8.588c1.358,0.376 2.682,0.861 3.962,1.45c3.196,1.494 6.355,4.051 1.044,7.139Z" style="fill:#2f2e41;fill-rule:nonzero;"/><path d="M330.623,607.142l-18.61,22.19l-5.011,11.453l6.442,5.01l5.727,-2.147c0,0 5.01,-12.884 10.021,-15.032c5.01,-2.147 17.179,-16.463 17.179,-16.463l-15.748,-5.011Z" style="fill:#ffb9b9;fill-rule:nonzero;"/><path d="M369.634,590.113l-9.491,17.595l-6.8,12.598c-2.176,1.295 -5.075,1.274 -8.196,0.508c-1.454,-0.372 -2.88,-0.848 -4.266,-1.425c-8.518,-3.485 -17.158,-10.407 -17.158,-10.407l16.349,-20.429l5.34,-6.664l1.267,-1.589l6.106,2.612l10.772,4.603l6.077,2.598Z" style="fill:#2f2e41;fill-rule:nonzero;"/><path d="M327.274,438.185l-7.582,31.1l7.805,39.9c0,0 0.192,16.31 7.343,15.072c7.152,-1.237 -0.343,-17.687 -0.343,-17.687l-3.498,-32.716l11.185,-32.321c0.86,-2.717 -0.35,-5.689 -2.863,-7.032c-4.428,-2.705 -10.721,-0.78 -12.047,3.684Z" style="fill:#ffb9b9;fill-rule:nonzero;"/><path d="M353.887,411.371l-6.442,20.043l-12.169,-6.442c0,0 5.011,-14.316 5.011,-16.464c0,-2.147 13.6,2.863 13.6,2.863Z" style="fill:#ffb9b9;fill-rule:nonzero;"/><circle cx="348.876" cy="404.213" r="15.032" style="fill:#ffb9b9;"/><path d="M352.813,436.066l-2.863,-2.863l-0.716,-3.579c0,0 -9.305,-12.168 -17.179,-7.874c-2.461,1.343 -4.292,4.432 -5.647,8.046c-3.451,9.443 -3.128,19.861 0.899,29.072l12.622,29.452l28.632,-2.863l-5.011,-18.611c0,0 5.011,-11.453 -4.295,-19.327l-6.442,-11.453Z" style="fill:#42a5f5;fill-rule:nonzero;"/><path d="M369.634,590.113l-9.491,17.595l-6.8,12.598c-2.176,1.295 -5.075,1.274 -8.196,0.508c-0.544,-3.622 2.706,-22.762 0.15,-38.367l0.115,-0.558l1.267,-1.589l6.106,2.612l10.772,4.603l6.077,2.598Z" style="fill-opacity:0.3;fill-rule:nonzero;"/><path d="M369.634,483.667c0,0 -18.61,-11.453 -31.495,2.863l0.716,4.295c0,0 -10.737,12.169 -4.295,37.937c6.443,25.769 16.464,93.054 16.464,93.054c0,0 23.621,1.432 34.358,-6.442c0,0 -3.579,-88.759 -15.748,-97.349l0,-34.358Z" style="fill:#2f2e41;fill-rule:nonzero;"/><path d="M330.827,443.8l20.197,24.835l36.505,17.895c0,0 13.112,9.704 16.447,3.258c3.336,-6.446 -14.299,-10.416 -14.299,-10.416l-28.18,-16.984l-18.992,-28.444c-1.644,-2.327 -4.743,-3.159 -7.332,-1.969c-4.831,1.894 -7.102,8.071 -4.346,11.825Z" style="fill:#ffb9b9;fill-rule:nonzero;"/><path d="M317.446,642.075c0,0 4.388,-5.518 7.009,-2.041c2.621,3.477 -3.091,6.456 -3.091,6.456l-0.333,17.935c0,0 3.117,13.714 -5.298,8.415c-8.415,-5.298 -8.746,-5.933 -10.401,-9.106c-1.656,-3.173 -5.076,-15.921 -8.028,-20.032c-2.952,-4.112 -5.656,-12.389 -2.151,-13.41c3.504,-1.021 19.838,-4.655 19.024,-3.444c-0.813,1.21 -5.228,5.128 -2.939,7.97c2.29,2.842 6.208,7.257 6.208,7.257Z" style="fill:#2f2e41;fill-rule:nonzero;"/><path d="M356.749,391.384c0,-0.019 0.001,-0.037 0.001,-0.055c0,0 0,0 0,0c0,-11.388 -9.371,-20.758 -20.758,-20.758c-11.388,0 -20.758,9.37 -20.758,20.758c0,11.388 9.37,20.758 20.758,20.758c0,0 0,0 0,0c0.482,0 2.389,3.612 2.863,3.579c0.029,-10.957 7.117,-23.546 17.894,-24.282Z" style="fill:#2f2e41;fill-rule:nonzero;"/><circle cx="313.802" cy="375.582" r="13.6" style="fill:#2f2e41;"/><path d="M313.178,354.98c0.029,-0.001 0.057,-0.001 0.086,-0.001c7.45,0 13.581,6.131 13.581,13.582c0,6.021 -4.005,11.358 -9.787,13.04c7.447,-0.012 13.569,-6.143 13.569,-13.59c0,-7.456 -6.135,-13.591 -13.591,-13.591c-1.306,0 -2.605,0.189 -3.858,0.56Z" style="fill:#2f2e41;fill-rule:nonzero;"/><path d="M345.297,387.034l7.158,0c7.068,0 12.885,5.816 12.885,12.885l-20.043,0l0,-12.885Z" style="fill:#2f2e41;fill-rule:nonzero;"/><path d="M683.655,676.307c0,0 0.622,-13.027 13.367,-11.513" style="fill:#3f3d56;fill-rule:nonzero;"/><path d="M563.919,676.307c0,0 0.622,-13.027 13.367,-11.513" style="fill:#3f3d56;fill-rule:nonzero;"/><path d="M127.289,676.307c0,0 0.621,-13.027 13.366,-11.513" style="fill:#3f3d56;fill-rule:nonzero;"/><path d="M737.671,676.307c0,0 0.622,-13.027 13.367,-11.513" style="fill:#3f3d56;fill-rule:nonzero;"/><path d="M712.464,676.307c0,0 0.622,-13.027 13.366,-11.513" style="fill:#3f3d56;fill-rule:nonzero;"/><path d="M660.465,676.307c0,0 -0.622,-13.027 -13.366,-11.513" style="fill:#3f3d56;fill-rule:nonzero;"/><path d="M453.403,676.307c0,0 -0.622,-13.027 -13.366,-11.513" style="fill:#3f3d56;fill-rule:nonzero;"/><path d="M281.452,676.307c0,0 -0.622,-13.027 -13.367,-11.513" style="fill:#3f3d56;fill-rule:nonzero;"/><path d="M98.697,676.307c0,0 -0.622,-13.027 -13.367,-11.513" style="fill:#3f3d56;fill-rule:nonzero;"/><path d="M791.904,676.307c0,0 -0.621,-13.027 -13.366,-11.513" style="fill:#3f3d56;fill-rule:nonzero;"/><path d="M714.481,677.207c0,0 -0.621,-13.027 -13.366,-11.513" style="fill:#3f3d56;fill-rule:nonzero;"/><rect x="0" y="674.604" width="888" height="7.19" style="fill:#3f3d56;"/></svg>