<?xml version="1.0" encoding="UTF-8" standalone="no"?><!DOCTYPE svg PUBLIC "-//W3C//DTD SVG 1.1//EN" "http://www.w3.org/Graphics/SVG/1.1/DTD/svg11.dtd"><svg width="100%" height="100%" viewBox="0 0 990 695" version="1.1" xmlns="http://www.w3.org/2000/svg" xmlns:xlink="http://www.w3.org/1999/xlink" xml:space="preserve" xmlns:serif="http://www.serif.com/" style="fill-rule:evenodd;clip-rule:evenodd;stroke-linejoin:round;stroke-miterlimit:2;"><rect id="Artboard1" x="0" y="0" width="990" height="694.312" style="fill:none;"/><clipPath id="_clip1"><rect x="0" y="0" width="990" height="694.312"/></clipPath><g clip-path="url(#_clip1)"><ellipse cx="495" cy="671.312" rx="495" ry="23" style="fill:#3f3d56;"/><ellipse cx="732" cy="675.312" rx="115" ry="16" style="fill-opacity:0.1;"/><ellipse cx="328" cy="672.312" rx="145" ry="19" style="fill-opacity:0.1;"/><path d="M216.873,415.736c40.629,36.752 32.964,73.736 6.014,103.528c-0.626,0.692 -1.256,1.374 -1.892,2.045c-1.278,1.354 -2.577,2.664 -3.896,3.929c-26.227,25.166 -60.038,32.568 -97.823,-1.612c-39.102,-35.371 -43.241,-129.985 -43.5,-137.034c0.003,-0.003 0.003,-0.003 0.003,-0.01c-0.01,-0.268 -0.014,-0.404 -0.014,-0.404c0,0 100.483,-7.192 141.108,29.558Z" style="fill:#42a5f5;fill-rule:nonzero;"/><path d="M214.897,515.606l-9.72,-44.667l12.701,47.454l3.117,2.916c-1.278,1.354 -2.577,2.664 -3.896,3.929l-38.723,-38.893l-0.329,-0.268l-0.027,-0.091l-3.658,-3.676l-48.607,-7.914l45.784,5.252l0.859,0.687l-29.256,-29.385l-47.049,-11.694l41.84,6.603l-62.157,-59.267l-0.206,-0.198l0.209,0.188l49.959,45.699l-4.622,-34.902l8.88,38.886l27.093,25.321l-12.11,-39.654l16.096,43.374l15.066,14.08l-16.012,-56.133l21.265,61.047l33.503,31.306Z" style="fill:#3f3d56;fill-rule:nonzero;"/><path d="M325,346.312c-93.259,0 -170,76.741 -170,170c0,93.259 76.741,170 170,170c93.259,0 170,-76.741 170,-170c0,-93.259 -76.741,-170 -170,-170Zm3,211.5c-19.054,0 -34.5,-18.804 -34.5,-42c0,-23.196 15.446,-42 34.5,-42c19.054,0 34.5,18.804 34.5,42c0,23.196 -15.446,42 -34.5,42Z" style="fill:#3f3d56;fill-rule:nonzero;"/><path d="M327,557.812c-19.054,0 -34.5,-18.804 -34.5,-42c0,-23.196 15.446,-42 34.5,-42c18.453,0 33.522,17.637 34.454,39.82c0.021,-0.605 0.046,-1.21 0.046,-1.82c-0.006,-27.968 -23.021,-50.98 -50.99,-50.98c-27.972,0 -50.99,23.018 -50.99,50.99c0,27.972 23.018,50.99 50.99,50.99c8.384,0 16.64,-2.068 24.034,-6.019c-2.458,0.673 -4.995,1.016 -7.544,1.019Z" style="fill-opacity:0.1;fill-rule:nonzero;"/><path d="M811,583.312l-140,0l0,93c0,0 71,23 140,0l0,-93Z" style="fill:#3f3d56;fill-rule:nonzero;"/><ellipse cx="740" cy="583.812" rx="69" ry="10.5" style="fill:#3f3d56;"/><ellipse cx="740" cy="583.812" rx="69" ry="10.5" style="fill-opacity:0.1;"/><path d="M820.208,472.198c-17.406,64.345 -77.027,104.195 -77.027,104.195c0,0 -31.4,-64.473 -13.993,-128.818c17.406,-64.344 77.027,-104.195 77.027,-104.195c0,0 31.399,64.473 13.993,128.818Z" style="fill:#3f3d56;fill-rule:nonzero;"/><path d="M661.858,472.198c17.406,64.345 77.027,104.195 77.027,104.195c0,0 31.4,-64.473 13.994,-128.818c-17.407,-64.344 -77.028,-104.195 -77.028,-104.195c0,0 -31.399,64.473 -13.993,128.818Z" style="fill:#42a5f5;fill-rule:nonzero;"/><path d="M687.436,458.37c47.763,46.496 53.597,117.97 53.597,117.97c0,0 -71.606,-3.909 -119.369,-50.405c-47.764,-46.496 -53.598,-117.971 -53.598,-117.971c0,0 71.606,3.91 119.37,50.406Z" style="fill:#3f3d56;fill-rule:nonzero;"/><path d="M794.631,458.37c-47.764,46.496 -53.598,117.97 -53.598,117.97c0,0 71.606,-3.909 119.37,-50.405c47.763,-46.496 53.597,-117.971 53.597,-117.971c0,0 -71.606,3.91 -119.369,50.406Z" style="fill:#3f3d56;fill-rule:nonzero;"/><circle cx="741" cy="343.312" r="22" style="fill:#42a5f5;"/><path d="M331.436,171.666c0,0 42.347,1.151 49.34,3.695c6.994,2.545 10.121,20.74 10.121,20.74l-32.879,10.334l-24.592,-1.393l-18.508,1.308l10.335,-27.065l6.183,-7.619Z" style="fill:#2f2e41;fill-rule:nonzero;"/><path d="M333.263,157.77c0,0 2.786,10.761 -3.398,18.38c-6.183,7.62 26.582,34.77 26.582,34.77l17.286,-2.971c0,0 -3.81,-33.064 1.308,-41.436c5.117,-8.373 -41.778,-8.743 -41.778,-8.743Z" style="fill:#9f616a;fill-rule:nonzero;"/><path d="M333.263,157.77c0,0 2.786,10.761 -3.398,18.38c-6.183,7.62 26.582,34.77 26.582,34.77l17.286,-2.971c0,0 -3.81,-33.064 1.308,-41.436c5.117,-8.373 -41.778,-8.743 -41.778,-8.743Z" style="fill-opacity:0.1;fill-rule:nonzero;"/><path d="M448.22,472.39l-38.139,50.577l26.028,15.195l35.822,-58.608l-23.711,-7.164Z" style="fill:#9f616a;fill-rule:nonzero;"/><path d="M421.468,523.82c0,0 -14.045,-16.319 -13.419,-12.68c0.625,3.639 -9.993,34.5 -0.114,37.485c9.879,2.985 94.601,10.902 95.766,1.336c1.166,-9.567 -25.274,-16.262 -25.274,-16.262c0,0 -15.708,-15.096 -19.19,-13.561c-3.483,1.535 -37.769,3.682 -37.769,3.682Z" style="fill:#2f2e41;fill-rule:nonzero;"/><path d="M439.663,520.692l30.463,51.899l22.999,-13.319l-30.718,-42.489l-22.744,3.909Z" style="fill:#9f616a;fill-rule:nonzero;"/><path d="M487.752,397.221l-9.041,12.794c0,0 -43.1,59.859 -38.522,64.692c4.577,4.833 23.639,23.099 33.334,19.56c9.694,-3.54 44.137,-64.721 44.137,-64.721l-8.984,-35.921l-20.924,3.596Z" style="fill:#2f2e41;fill-rule:nonzero;"/><path d="M302.09,385.11c0,0 9.652,18.011 34.116,24.109c24.464,6.098 50.023,18.565 50.932,18.408c0.91,-0.156 3.483,-1.535 4.108,2.104c0.626,3.639 7.335,9.979 7.335,9.979c0,0 27.023,91.828 37.343,91.928c10.321,0.099 31.529,-7.292 31.97,-10.178c0.44,-2.886 -31.6,-96.662 -31.913,-98.481l-3.753,-21.834c0,0 42.375,6.766 46.327,7.96c3.951,1.194 39.105,20.441 39.105,20.441c0,0 35.836,-25.829 2.317,-51.913c-33.519,-26.085 -91.132,-45.218 -91.132,-45.218l-20.669,-5.814l-18.013,-1.075l-2.653,-10.171l-42.662,2.462l-44.521,18.892l1.763,48.401Z" style="fill:#2f2e41;fill-rule:nonzero;"/><circle cx="358.395" cy="145.958" r="33.232" style="fill:#9f616a;"/><path d="M328.33,172.668l3.997,-0.687c0,0 7.219,27.795 29.551,32.386c0,0 11.019,-13.2 10.548,-15.428c-0.47,-2.227 8.727,-14.111 13.617,-7.458c4.89,6.652 -1.194,123.841 2.914,125.944c4.109,2.104 12.922,4.336 5.829,12.112c-7.094,7.775 -35.268,18.237 -41.508,14.627c-6.24,-3.611 -18.991,-34.201 -24.507,-44.493c-5.515,-10.292 -14.343,-45.303 -14.343,-45.303c0,0 -11.272,-38.338 -4.336,-47.023c6.937,-8.685 18.238,-24.677 18.238,-24.677Z" style="fill:#d0cde1;fill-rule:nonzero;"/><path d="M360.135,316.938c-0.743,8.164 -2.015,16.27 -3.807,24.269c-1.63,6.508 -3.527,10.437 -5.693,10.269c-5.526,-0.413 -8.037,7.692 -9.332,17.035c-1.384,9.913 -1.384,21.221 -2.143,25.217c-1.005,5.28 -7.435,9.31 -20.283,8.126c-7.652,-0.87 -15.162,-2.712 -22.349,-5.481c-17.347,-6.307 -16.833,-57.455 -13.931,-95.409c1.775,-23.263 4.443,-41.581 4.443,-41.581c0,0 -5.269,-15.718 -6.954,-26.49c-0.336,-1.965 -0.504,-3.956 -0.503,-5.95c0.257,-9.41 17.437,-34.839 27.818,-50.679c10.393,-15.84 24.57,-4.22 24.57,-4.22l-4.934,14.892c0,0 7.646,11.799 7.702,23.029c0.056,11.229 18.307,19.334 24.86,24.77c4.119,3.416 4.018,49.016 0.536,82.203Z" style="fill:#2f2e41;fill-rule:nonzero;"/><path d="M374.564,177.366c0,0 1.198,1.415 6.681,0.725c6.577,-0.829 15.619,1.447 17.719,7.725c3.853,11.514 14.713,58.353 14.713,58.353c0,0 4.521,53.548 6.553,65.374c2.033,11.827 1.024,22.304 3.028,28.516c2.004,6.212 -19.787,-11.586 -27.819,-9.269c-8.031,2.318 -13.191,-27.704 -12.182,-38.181c1.009,-10.476 1.862,-21.862 -0.924,-32.623c-2.786,-10.761 2.154,-39.241 1.969,-45.765c-0.185,-6.525 -17.71,-22.969 -9.738,-34.855Z" style="fill:#2f2e41;fill-rule:nonzero;"/><path d="M398.078,343.791c0,0 35.186,19.196 38.553,46.518c3.368,27.322 -47.062,-26.455 -47.062,-26.455l8.509,-20.063Z" style="fill:#9f616a;fill-rule:nonzero;"/><path d="M418.164,324.416c0,0 10.781,54.345 27.577,51.459c16.795,-2.887 -9.382,-54.586 -9.382,-54.586l-18.195,3.127Z" style="fill:#9f616a;fill-rule:nonzero;"/><path d="M475.684,561.333c0,0 -8.6,9.908 -10.733,8.401c-2.132,-1.507 -7.036,19.005 -2.615,22.929c4.421,3.923 21.45,10.362 21.635,16.887c0.185,6.525 45.858,5.231 47.492,-1.606c1.635,-6.838 -5.728,-22.432 -10.903,-25.289c-5.174,-2.857 -24.306,-29.154 -24.306,-29.154c0,0 -14.984,2.189 -20.57,7.832Z" style="fill:#2f2e41;fill-rule:nonzero;"/><path d="M392.473,377.028c-8.16,-5.76 -30.943,-7.189 -51.17,-8.517c-8.875,-0.569 -17.258,-1.128 -23.699,-2.032c-6.207,-0.859 -11.788,-6.53 -16.744,-14.98c-7.513,-12.804 -13.586,-32.004 -18.263,-50.535c1.775,-23.263 4.443,-41.581 4.443,-41.581c0,0 -5.269,-15.718 -6.954,-26.49c1.188,-1.654 2.718,-3.032 4.487,-4.041c21.455,-9.209 41.939,81.422 44.54,95.644c0.045,0.234 0.078,0.457 0.112,0.647c1.261,7.323 14.891,13.585 27.103,16.063c7.524,1.53 14.523,1.63 17.749,-0.357c8.473,-5.202 34.527,15.617 36.503,16.209c1.975,0.603 -6.386,28.264 -18.107,19.97Z" style="fill-opacity:0.1;fill-rule:nonzero;"/><path d="M284.577,223.273c0,0 -15.594,7.364 -8.742,41.778c6.851,34.414 20.654,92.923 41.763,95.851c21.11,2.929 63.143,2.26 74.871,10.548c11.727,8.287 20.085,-19.375 18.109,-19.972c-1.975,-0.597 -28.032,-21.408 -36.504,-16.205c-8.472,5.202 -42.815,-3.881 -44.848,-15.708c-2.033,-11.827 -22.844,-105.66 -44.649,-96.292Z" style="fill:#2f2e41;fill-rule:nonzero;"/><path d="M396.946,206.769l17.138,39.767c0,0 1.725,-0.86 3.73,5.351c2.004,6.212 2.942,11.671 6.453,15.751c3.511,4.079 19.134,62.275 19.603,65.005c0.469,2.729 -21.577,12.138 -26.503,4.555c-4.926,-7.583 -20.421,-130.429 -20.421,-130.429Z" style="fill:#2f2e41;fill-rule:nonzero;"/><path d="M339.488,145.495c1.274,-0.34 1.461,-2.031 1.504,-3.348c0.228,-7.056 4.477,-14.295 11.23,-16.349c2.592,-0.711 5.305,-0.86 7.959,-0.438c3.788,0.504 7.446,1.725 10.778,3.596c1.759,0.988 3.485,2.18 5.48,2.482c1.317,0.199 7.023,1.858 8.335,2.091c2.885,0.514 5.566,3.095 8.334,2.134c2.648,-0.919 3.234,-4.348 3.298,-7.15c0.146,-6.385 -4.701,-15.221 -8.97,-19.971c-3.239,-3.604 -8.117,-5.268 -12.886,-6.133c-5.57,-0.895 -11.215,-1.239 -16.852,-1.025c-7.632,0.136 -15.474,0.725 -22.355,4.027c-6.882,3.302 -12.662,9.873 -12.991,17.498c-0.069,1.589 0.095,3.184 -0.039,4.768c-0.326,3.865 -2.378,7.356 -3.341,11.113c-1.391,5.572 -0.358,11.48 2.84,16.25c2.554,3.759 6.568,7.158 6.42,11.699l5.538,-5.737c1.698,-1.296 2.264,-3.623 1.352,-5.555l-1.96,-7.646c-0.504,-1.364 -0.563,-2.854 -0.17,-4.254c2.101,-5.192 4.373,2.515 6.496,1.948Z" style="fill:#2f2e41;fill-rule:nonzero;"/></g></svg>