<svg xmlns="http://www.w3.org/2000/svg" fill-rule="evenodd" stroke-linejoin="round" stroke-miterlimit="2" clip-rule="evenodd" viewBox="0 0 101 101"><path fill="#c5cae9" d="M48.845 34.601a1.728 1.728 0 0 0 2.447 0L82.936 2.957c3.903-3.902 10.24-3.902 14.142 0 3.903 3.903 3.903 10.24 0 14.142L65.435 48.743a1.73 1.73 0 0 0 0 2.448l31.643 31.644c3.903 3.902 3.903 10.239 0 14.142-3.902 3.902-10.239 3.902-14.142 0L51.292 65.333a1.726 1.726 0 0 0-2.447 0L17.201 96.977c-3.903 3.902-10.24 3.902-14.142 0-3.903-3.903-3.903-10.24 0-14.142l31.644-31.644a1.734 1.734 0 0 0 0-2.448L3.059 17.099c-3.903-3.902-3.903-10.239 0-14.142 3.902-3.902 10.239-3.902 14.142 0l31.644 31.644z"/></svg>