<?xml version="1.0" encoding="UTF-8" standalone="no"?><!DOCTYPE svg PUBLIC "-//W3C//DTD SVG 1.1//EN" "http://www.w3.org/Graphics/SVG/1.1/DTD/svg11.dtd"><svg width="100%" height="100%" viewBox="0 0 101 101" version="1.1" xmlns="http://www.w3.org/2000/svg" xmlns:xlink="http://www.w3.org/1999/xlink" xml:space="preserve" xmlns:serif="http://www.serif.com/" style="fill-rule:evenodd;clip-rule:evenodd;stroke-linejoin:round;stroke-miterlimit:2;"><path id="close" d="M48.845,34.601c0.324,0.325 0.765,0.507 1.224,0.507c0.459,0 0.899,-0.182 1.223,-0.507c5.959,-5.958 31.644,-31.644 31.644,-31.644c3.903,-3.902 10.24,-3.902 14.142,0c3.903,3.903 3.903,10.24 0,14.142c0,0 -25.685,25.686 -31.643,31.644c-0.325,0.325 -0.507,0.765 -0.507,1.224c0,0.459 0.182,0.899 0.507,1.224c5.958,5.958 31.643,31.644 31.643,31.644c3.903,3.902 3.903,10.239 0,14.142c-3.902,3.902 -10.239,3.902 -14.142,0c0,0 -25.685,-25.686 -31.644,-31.644c-0.324,-0.325 -0.764,-0.507 -1.223,-0.507c-0.459,0 -0.9,0.182 -1.224,0.507c-5.958,5.958 -31.644,31.644 -31.644,31.644c-3.903,3.902 -10.24,3.902 -14.142,0c-3.903,-3.903 -3.903,-10.24 0,-14.142c0,0 25.685,-25.686 31.644,-31.644c0.324,-0.325 0.507,-0.765 0.507,-1.224c0,-0.459 -0.183,-0.899 -0.507,-1.224c-5.959,-5.958 -31.644,-31.644 -31.644,-31.644c-3.903,-3.902 -3.903,-10.239 0,-14.142c3.902,-3.902 10.239,-3.902 14.142,0c0,0 25.686,25.686 31.644,31.644Z" style="fill:#c5cae9;"/></svg>