<?xml version="1.0" encoding="UTF-8" standalone="no"?><!DOCTYPE svg PUBLIC "-//W3C//DTD SVG 1.1//EN" "http://www.w3.org/Graphics/SVG/1.1/DTD/svg11.dtd"><svg width="100%" height="100%" viewBox="0 0 101 100" version="1.1" xmlns="http://www.w3.org/2000/svg" xmlns:xlink="http://www.w3.org/1999/xlink" xml:space="preserve" xmlns:serif="http://www.serif.com/" style="fill-rule:evenodd;clip-rule:evenodd;stroke-linejoin:round;stroke-miterlimit:2;"><path id="coffee" d="M75.076,89.079l-1.74,5.499c-0.995,3.148 -3.916,5.287 -7.217,5.287c-10.889,0 -34.952,0 -45.841,0c-3.301,0 -6.222,-2.139 -7.217,-5.287c-2.774,-8.771 -8.428,-26.646 -12.52,-39.583c-1.117,-3.533 -0.483,-7.386 1.706,-10.375c2.189,-2.988 5.672,-4.755 9.377,-4.755l63.149,0c3.705,0 7.188,1.767 9.377,4.755c1.318,1.8 2.072,3.912 2.22,6.079c8.25,2.466 14.271,10.118 14.271,19.166c0,11.039 -8.962,20 -20,20c-1.93,0 -3.798,-0.274 -5.565,-0.786Zm9.043,-28.591c3.806,1.413 6.522,5.081 6.522,9.377c0,5.52 -4.481,10 -10,10c-0.88,0 -1.734,-0.114 -2.547,-0.328l6.025,-19.049Zm-24.204,-26.808c4.914,-6.619 5.65,-15.452 1.899,-22.793c-1.597,-3.107 -2.495,-6.447 -2.696,-10.02c-0.018,-0.408 -0.306,-0.753 -0.704,-0.844c-0.398,-0.091 -0.808,0.095 -1.001,0.455c-0.491,0.908 -0.938,1.819 -1.348,2.73c-2.646,5.932 -2.654,12.707 -0.022,18.645c1.781,3.975 2.773,7.838 3.031,11.596c0.01,0.194 0.141,0.359 0.326,0.415c0.185,0.056 0.385,-0.01 0.501,-0.165c0.004,-0.006 0.009,-0.012 0.014,-0.019Zm-15.934,0c4.915,-6.619 5.651,-15.452 1.9,-22.793c-1.597,-3.107 -2.495,-6.447 -2.696,-10.02c-0.018,-0.408 -0.306,-0.753 -0.704,-0.844c-0.398,-0.091 -0.808,0.095 -1.001,0.455c-0.491,0.908 -0.939,1.819 -1.348,2.73c-2.646,5.932 -2.654,12.707 -0.022,18.645c1.781,3.975 2.773,7.838 3.03,11.596c0.011,0.194 0.142,0.359 0.327,0.415c0.185,0.056 0.385,-0.01 0.501,-0.165c0.004,-0.006 0.009,-0.012 0.013,-0.019Zm-15.933,0c4.915,-6.619 5.651,-15.452 1.9,-22.793c-1.597,-3.107 -2.496,-6.447 -2.696,-10.02c-0.018,-0.408 -0.306,-0.753 -0.704,-0.844c-0.398,-0.091 -0.808,0.095 -1.001,0.455c-0.491,0.908 -0.939,1.819 -1.348,2.73c-2.647,5.932 -2.655,12.707 -0.022,18.645c1.781,3.975 2.773,7.838 3.03,11.596c0.011,0.194 0.141,0.359 0.326,0.415c0.186,0.056 0.386,-0.01 0.502,-0.165c0.004,-0.006 0.009,-0.012 0.013,-0.019Z" style="fill:#c5cae9;"/></svg>