<?xml version="1.0" encoding="UTF-8" standalone="no"?><!DOCTYPE svg PUBLIC "-//W3C//DTD SVG 1.1//EN" "http://www.w3.org/Graphics/SVG/1.1/DTD/svg11.dtd"><svg width="100%" height="100%" viewBox="0 0 98 101" version="1.1" xmlns="http://www.w3.org/2000/svg" xmlns:xlink="http://www.w3.org/1999/xlink" xml:space="preserve" xmlns:serif="http://www.serif.com/" style="fill-rule:evenodd;clip-rule:evenodd;stroke-linejoin:round;stroke-miterlimit:2;"><path id="finish" d="M77.752,37.644l0,-27.492c0,-5.519 4.481,-10 10,-10c5.519,0 10,4.481 10,10l0,80c0,5.519 -4.481,10 -10,10c-5.519,0 -10,-4.481 -10,-10l0,-27.415l-62.563,36.121c-3.094,1.786 -6.906,1.786 -10,0c-3.094,-1.786 -5,-5.088 -5,-8.66l0,-80.014c0,-3.573 1.906,-6.874 5,-8.661c3.094,-1.786 6.906,-1.786 10,0l62.563,36.121Zm-57.563,32.235c0,0.619 0.33,1.19 0.865,1.499c0.536,0.309 1.195,0.309 1.731,0c7.132,-4.118 26.969,-15.571 34.102,-19.688c0.535,-0.31 0.865,-0.881 0.865,-1.499c0,-0.619 -0.33,-1.19 -0.865,-1.499c-7.133,-4.118 -26.97,-15.571 -34.102,-19.689c-0.536,-0.309 -1.195,-0.309 -1.731,0c-0.535,0.309 -0.865,0.881 -0.865,1.499l0,39.377Z" style="fill:#c5cae9;"/></svg>