<?xml version="1.0" encoding="UTF-8" standalone="no"?><!DOCTYPE svg PUBLIC "-//W3C//DTD SVG 1.1//EN" "http://www.w3.org/Graphics/SVG/1.1/DTD/svg11.dtd"><svg width="100%" height="100%" viewBox="0 0 136 101" version="1.1" xmlns="http://www.w3.org/2000/svg" xmlns:xlink="http://www.w3.org/1999/xlink" xml:space="preserve" xmlns:serif="http://www.serif.com/" style="fill-rule:evenodd;clip-rule:evenodd;stroke-linejoin:round;stroke-miterlimit:2;"><path id="mute" d="M39.203,30.225c0.525,0 1.021,-0.239 1.35,-0.649c2.25,-2.811 11.456,-14.312 20.412,-25.5c2.841,-3.55 7.615,-4.918 11.906,-3.412c4.291,1.505 7.163,5.557 7.163,10.104c0,23.388 0,55.512 0,78.895c0,4.547 -2.872,8.598 -7.161,10.104c-4.29,1.507 -9.064,0.14 -11.906,-3.409c-8.957,-11.181 -18.164,-22.675 -20.414,-25.485c-0.329,-0.41 -0.825,-0.648 -1.35,-0.648c-2.586,0 -10.817,0 -19.061,0c-11.045,0 -19.999,0 -19.999,-20l0,-0.001c0,-19.999 8.954,-19.999 19.999,-19.999l19.061,0Zm72.367,9.248c0.303,0.303 0.713,0.473 1.141,0.473c0.428,0 0.838,-0.17 1.141,-0.473c2.582,-2.582 8.963,-8.963 13.001,-13.001c0.938,-0.938 2.21,-1.465 3.536,-1.465c1.326,0 2.598,0.527 3.535,1.465c0,0 0,0 0.001,0c0.937,0.938 1.464,2.209 1.464,3.535c0,1.326 -0.527,2.598 -1.464,3.536c-4.038,4.038 -10.42,10.419 -13.002,13.001c-0.302,0.303 -0.472,0.713 -0.472,1.141c0,0.428 0.17,0.838 0.472,1.141c2.582,2.582 8.964,8.963 13.002,13.001c0.937,0.938 1.464,2.21 1.464,3.536c0,1.326 -0.527,2.598 -1.464,3.535c-0.001,0 -0.001,0 -0.001,0c-0.937,0.938 -2.209,1.465 -3.535,1.465c-1.326,0 -2.598,-0.527 -3.536,-1.465c-4.038,-4.038 -10.419,-10.419 -13.001,-13.001c-0.303,-0.303 -0.713,-0.473 -1.141,-0.473c-0.428,0 -0.838,0.17 -1.141,0.473c-2.582,2.582 -8.963,8.963 -13.001,13.001c-0.938,0.938 -2.209,1.465 -3.535,1.465c-1.326,0 -2.598,-0.527 -3.536,-1.465c0,0 0,0 0,0c-0.938,-0.937 -1.464,-2.209 -1.464,-3.535c0,-1.326 0.526,-2.598 1.464,-3.536c4.038,-4.038 10.419,-10.419 13.001,-13.001c0.303,-0.303 0.473,-0.713 0.473,-1.141c0,-0.428 -0.17,-0.838 -0.473,-1.141c-2.582,-2.582 -8.963,-8.963 -13.001,-13.001c-0.938,-0.938 -1.464,-2.21 -1.464,-3.536c0,-1.326 0.526,-2.597 1.464,-3.535c0,0 0,0 0,0c0.938,-0.938 2.21,-1.465 3.536,-1.465c1.326,0 2.597,0.527 3.535,1.465c4.038,4.038 10.419,10.419 13.001,13.001Z" style="fill:#c5cae9;"/></svg>