<?xml version="1.0" encoding="UTF-8" standalone="no"?><!DOCTYPE svg PUBLIC "-//W3C//DTD SVG 1.1//EN" "http://www.w3.org/Graphics/SVG/1.1/DTD/svg11.dtd"><svg width="100%" height="100%" viewBox="0 0 61 101" version="1.1" xmlns="http://www.w3.org/2000/svg" xmlns:xlink="http://www.w3.org/1999/xlink" xml:space="preserve" xmlns:serif="http://www.serif.com/" style="fill-rule:evenodd;clip-rule:evenodd;stroke-linejoin:round;stroke-miterlimit:2;"><path id="pause" d="M20.049,10.152c0,-5.519 -4.481,-10 -10,-10c-5.519,0 -10,4.481 -10,10l0,80c0,5.519 4.481,10 10,10c5.519,0 10,-4.481 10,-10l0,-80Zm40,0c0,-5.519 -4.481,-10 -10,-10c-5.519,0 -10,4.481 -10,10l0,80c0,5.519 4.481,10 10,10c5.519,0 10,-4.481 10,-10l0,-80Z" style="fill:#c5cae9;"/></svg>