<svg xmlns="http://www.w3.org/2000/svg" fill-rule="evenodd" stroke-linejoin="round" stroke-miterlimit="2" clip-rule="evenodd" viewBox="0 0 99 101"><path d="M57.344 2.061A1.73 1.73 0 0 0 55.861.565a50.053 50.053 0 0 0-13.01.002 1.727 1.727 0 0 0-1.481 1.494c-.244 1.9-.691 5.401-.924 7.228a1.732 1.732 0 0 1-1.29 1.458 40.386 40.386 0 0 0-4.704 1.527 1.73 1.73 0 0 1-1.9-.421l-4.995-5.305a1.73 1.73 0 0 0-2.079-.338 50.088 50.088 0 0 0-10.524 7.648 1.729 1.729 0 0 0-.32 2.08c.919 1.68 2.616 4.775 3.501 6.39a1.732 1.732 0 0 1-.187 1.938 40.445 40.445 0 0 0-2.908 4.001c-.379.6-1.087.908-1.784.775-1.81-.341-5.278-.999-7.159-1.355a1.73 1.73 0 0 0-1.881.948A50.078 50.078 0 0 0 .197 41.009a1.727 1.727 0 0 0 .964 1.87c1.731.819 4.922 2.326 6.588 3.112.642.303 1.034.969.988 1.678a40.606 40.606 0 0 0-.001 4.946 1.729 1.729 0 0 1-.988 1.676L1.16 57.403a1.73 1.73 0 0 0-.965 1.872 50.12 50.12 0 0 0 4.022 12.373 1.73 1.73 0 0 0 1.879.947c1.882-.355 5.35-1.012 7.16-1.355a1.73 1.73 0 0 1 1.785.776 40.287 40.287 0 0 0 2.907 4.002c.453.547.527 1.314.186 1.937-.884 1.616-2.581 4.71-3.502 6.39a1.731 1.731 0 0 0 .321 2.082 50.05 50.05 0 0 0 10.526 7.645c.689.37 1.541.232 2.077-.338a8022.66 8022.66 0 0 0 4.995-5.304 1.73 1.73 0 0 1 1.901-.422 40.4 40.4 0 0 0 4.704 1.53 1.73 1.73 0 0 1 1.289 1.457l.923 7.228c.099.776.707 1.39 1.483 1.496 4.318.564 8.692.564 13.01-.002a1.73 1.73 0 0 0 1.481-1.495c.244-1.899.691-5.4.924-7.227a1.73 1.73 0 0 1 1.29-1.458 40.39 40.39 0 0 0 4.704-1.528 1.732 1.732 0 0 1 1.9.422l4.995 5.304c.536.57 1.389.709 2.079.339a50.057 50.057 0 0 0 10.524-7.649 1.728 1.728 0 0 0 .32-2.079c-.919-1.681-2.616-4.775-3.501-6.39a1.732 1.732 0 0 1 .187-1.938 40.563 40.563 0 0 0 2.908-4.001 1.729 1.729 0 0 1 1.784-.776l7.159 1.356a1.732 1.732 0 0 0 1.881-.948 50.091 50.091 0 0 0 4.019-12.374 1.729 1.729 0 0 0-.964-1.871c-1.731-.819-4.922-2.326-6.588-3.112a1.73 1.73 0 0 1-.988-1.677c.101-1.647.101-3.299.001-4.947a1.729 1.729 0 0 1 .988-1.676l6.588-3.111a1.731 1.731 0 0 0 .965-1.873 50.112 50.112 0 0 0-4.022-12.372 1.729 1.729 0 0 0-1.88-.947c-1.881.354-5.349 1.012-7.159 1.355a1.73 1.73 0 0 1-1.785-.777 40.404 40.404 0 0 0-2.907-4.002 1.732 1.732 0 0 1-.186-1.937c.884-1.615 2.581-4.71 3.502-6.389a1.73 1.73 0 0 0-.321-2.082 50.09 50.09 0 0 0-10.526-7.646 1.73 1.73 0 0 0-2.077.338c-1.314 1.394-3.733 3.964-4.995 5.305a1.731 1.731 0 0 1-1.901.421 40.396 40.396 0 0 0-4.704-1.529 1.73 1.73 0 0 1-1.289-1.458l-.923-7.227zm-7.988 25.637c12.387 0 22.444 10.057 22.444 22.444 0 12.387-10.057 22.443-22.444 22.443-12.387 0-22.444-10.056-22.444-22.443 0-12.387 10.057-22.444 22.444-22.444z"/></svg>
