<?xml version="1.0" encoding="UTF-8" standalone="no"?><!DOCTYPE svg PUBLIC "-//W3C//DTD SVG 1.1//EN" "http://www.w3.org/Graphics/SVG/1.1/DTD/svg11.dtd"><svg width="100%" height="100%" viewBox="0 0 99 101" version="1.1" xmlns="http://www.w3.org/2000/svg" xmlns:xlink="http://www.w3.org/1999/xlink" xml:space="preserve" xmlns:serif="http://www.serif.com/" style="fill-rule:evenodd;clip-rule:evenodd;stroke-linejoin:round;stroke-miterlimit:2;"><path id="settings" d="M57.344,2.061c-0.099,-0.777 -0.707,-1.39 -1.483,-1.496c-4.318,-0.565 -8.692,-0.565 -13.01,0.002c-0.775,0.105 -1.382,0.718 -1.481,1.494c-0.244,1.9 -0.691,5.401 -0.924,7.228c-0.09,0.704 -0.601,1.282 -1.29,1.458c-1.598,0.412 -3.169,0.923 -4.704,1.527c-0.66,0.263 -1.413,0.096 -1.9,-0.421c-1.263,-1.34 -3.682,-3.91 -4.995,-5.305c-0.536,-0.57 -1.389,-0.709 -2.079,-0.338c-3.825,2.081 -7.364,4.652 -10.524,7.648c-0.565,0.541 -0.696,1.394 -0.32,2.08c0.919,1.68 2.616,4.775 3.501,6.39c0.341,0.623 0.267,1.391 -0.187,1.938c-1.05,1.273 -2.021,2.609 -2.908,4.001c-0.379,0.6 -1.087,0.908 -1.784,0.775c-1.81,-0.341 -5.278,-0.999 -7.159,-1.355c-0.769,-0.146 -1.541,0.243 -1.881,0.948c-1.872,3.932 -3.223,8.092 -4.019,12.374c-0.139,0.769 0.256,1.537 0.964,1.87c1.731,0.819 4.922,2.326 6.588,3.112c0.642,0.303 1.034,0.969 0.988,1.678c-0.101,1.647 -0.101,3.299 -0.001,4.946c0.046,0.708 -0.345,1.373 -0.988,1.676c-1.665,0.787 -4.856,2.294 -6.588,3.112c-0.708,0.334 -1.104,1.102 -0.965,1.872c0.798,4.282 2.149,8.441 4.022,12.373c0.34,0.704 1.111,1.093 1.879,0.947c1.882,-0.355 5.35,-1.012 7.16,-1.355c0.698,-0.132 1.406,0.175 1.785,0.776c0.886,1.392 1.857,2.729 2.907,4.002c0.453,0.547 0.527,1.314 0.186,1.937c-0.884,1.616 -2.581,4.71 -3.502,6.39c-0.376,0.686 -0.245,1.54 0.321,2.082c3.161,2.995 6.7,5.566 10.526,7.645c0.689,0.37 1.541,0.232 2.077,-0.338c1.314,-1.393 3.733,-3.963 4.995,-5.304c0.487,-0.518 1.241,-0.685 1.901,-0.422c1.535,0.606 3.106,1.116 4.704,1.53c0.688,0.175 1.199,0.753 1.289,1.457c0.234,1.827 0.681,5.328 0.923,7.228c0.099,0.776 0.707,1.39 1.483,1.496c4.318,0.564 8.692,0.564 13.01,-0.002c0.775,-0.106 1.382,-0.719 1.481,-1.495c0.244,-1.899 0.691,-5.4 0.924,-7.227c0.09,-0.705 0.601,-1.283 1.29,-1.458c1.598,-0.413 3.169,-0.923 4.704,-1.528c0.66,-0.262 1.413,-0.095 1.9,0.422c1.263,1.34 3.682,3.91 4.995,5.304c0.536,0.57 1.389,0.709 2.079,0.339c3.825,-2.081 7.364,-4.652 10.524,-7.649c0.565,-0.541 0.696,-1.394 0.32,-2.079c-0.919,-1.681 -2.616,-4.775 -3.501,-6.39c-0.341,-0.623 -0.267,-1.392 0.187,-1.938c1.05,-1.273 2.021,-2.61 2.908,-4.001c0.379,-0.601 1.087,-0.908 1.784,-0.776c1.81,0.342 5.278,0.999 7.159,1.356c0.769,0.145 1.541,-0.243 1.881,-0.948c1.872,-3.933 3.223,-8.092 4.019,-12.374c0.139,-0.77 -0.256,-1.537 -0.964,-1.871c-1.731,-0.819 -4.922,-2.326 -6.588,-3.112c-0.642,-0.303 -1.034,-0.968 -0.988,-1.677c0.101,-1.647 0.101,-3.299 0.001,-4.947c-0.046,-0.708 0.345,-1.373 0.988,-1.676c1.665,-0.787 4.856,-2.294 6.588,-3.111c0.708,-0.334 1.104,-1.102 0.965,-1.873c-0.798,-4.281 -2.149,-8.441 -4.022,-12.372c-0.34,-0.705 -1.111,-1.093 -1.88,-0.947c-1.881,0.354 -5.349,1.012 -7.159,1.355c-0.698,0.132 -1.406,-0.176 -1.785,-0.777c-0.886,-1.392 -1.857,-2.728 -2.907,-4.002c-0.453,-0.546 -0.527,-1.314 -0.186,-1.937c0.884,-1.615 2.581,-4.71 3.502,-6.389c0.376,-0.687 0.245,-1.541 -0.321,-2.082c-3.161,-2.995 -6.7,-5.566 -10.526,-7.646c-0.689,-0.37 -1.541,-0.231 -2.077,0.338c-1.314,1.394 -3.733,3.964 -4.995,5.305c-0.487,0.517 -1.241,0.684 -1.901,0.421c-1.535,-0.605 -3.106,-1.116 -4.704,-1.529c-0.688,-0.176 -1.199,-0.753 -1.289,-1.458c-0.234,-1.826 -0.681,-5.327 -0.923,-7.227Zm-7.988,25.637c12.387,0 22.444,10.057 22.444,22.444c0,12.387 -10.057,22.443 -22.444,22.443c-12.387,0 -22.444,-10.056 -22.444,-22.443c0,-12.387 10.057,-22.444 22.444,-22.444Z" style="fill:#c5cae9;"/></svg>