<?xml version="1.0" encoding="UTF-8" standalone="no"?><!DOCTYPE svg PUBLIC "-//W3C//DTD SVG 1.1//EN" "http://www.w3.org/Graphics/SVG/1.1/DTD/svg11.dtd"><svg width="100%" height="100%" viewBox="0 0 159 101" version="1.1" xmlns="http://www.w3.org/2000/svg" xmlns:xlink="http://www.w3.org/1999/xlink" xml:space="preserve" xmlns:serif="http://www.serif.com/" style="fill-rule:evenodd;clip-rule:evenodd;stroke-linejoin:round;stroke-miterlimit:2;"><path id="skip" d="M69.59,32.878l0,-22.728c0,-3.573 1.906,-6.874 5,-8.66c3.094,-1.787 6.906,-1.787 10,0l69.294,40.007c3.094,1.786 5,5.087 5,8.66c0,3.573 -1.906,6.874 -5,8.66l-69.294,40.007c-3.094,1.787 -6.906,1.787 -10,0c-3.094,-1.786 -5,-5.087 -5,-8.66l0,-22.727l-54.365,31.387c-3.094,1.787 -6.906,1.787 -10,0c-3.094,-1.786 -5,-5.087 -5,-8.66l0,-80.014c0,-3.573 1.906,-6.874 5,-8.66c3.094,-1.787 6.906,-1.787 10,0l54.365,31.388Zm-49.365,36.968c0,0.618 0.329,1.189 0.865,1.499c0.535,0.309 1.195,0.309 1.731,0c7.132,-4.118 26.969,-15.571 34.101,-19.689c0.536,-0.309 0.866,-0.881 0.866,-1.499c0,-0.618 -0.33,-1.19 -0.866,-1.499c-7.132,-4.118 -26.969,-15.571 -34.101,-19.689c-0.536,-0.309 -1.196,-0.309 -1.731,0c-0.536,0.31 -0.865,0.881 -0.865,1.499l0,39.378Zm69.365,0c0,0.618 0.33,1.189 0.865,1.499c0.536,0.309 1.195,0.309 1.731,0c7.132,-4.118 26.969,-15.571 34.102,-19.689c0.535,-0.309 0.865,-0.881 0.865,-1.499c0,-0.618 -0.33,-1.19 -0.865,-1.499c-7.133,-4.118 -26.97,-15.571 -34.102,-19.689c-0.536,-0.309 -1.195,-0.309 -1.731,0c-0.535,0.31 -0.865,0.881 -0.865,1.499l0,39.378Z" style="fill:#c5cae9;"/></svg>