<svg xmlns="http://www.w3.org/2000/svg" fill-rule="evenodd" stroke-linejoin="round" stroke-miterlimit="2" clip-rule="evenodd" viewBox="0 0 159 101"><path fill="#c5cae9" d="M69.59 32.878V10.15a9.999 9.999 0 0 1 15-8.66l69.294 40.007a9.999 9.999 0 0 1 0 17.32L84.59 98.824a9.999 9.999 0 1 1-15-8.66V67.437L15.225 98.824a9.999 9.999 0 1 1-15-8.66V10.15a9.999 9.999 0 0 1 15-8.66L69.59 32.878zM20.225 69.846a1.731 1.731 0 0 0 2.596 1.499l34.101-19.689a1.73 1.73 0 0 0 0-2.998L22.821 28.969a1.732 1.732 0 0 0-2.596 1.499v39.378zm69.365 0a1.732 1.732 0 0 0 2.596 1.499l34.102-19.689a1.732 1.732 0 0 0 0-2.998L92.186 28.969a1.732 1.732 0 0 0-2.596 1.499v39.378z"/></svg>