<?xml version="1.0" encoding="UTF-8" standalone="no"?><!DOCTYPE svg PUBLIC "-//W3C//DTD SVG 1.1//EN" "http://www.w3.org/Graphics/SVG/1.1/DTD/svg11.dtd"><svg width="100%" height="100%" viewBox="0 0 134 101" version="1.1" xmlns="http://www.w3.org/2000/svg" xmlns:xlink="http://www.w3.org/1999/xlink" xml:space="preserve" xmlns:serif="http://www.serif.com/" style="fill-rule:evenodd;clip-rule:evenodd;stroke-linejoin:round;stroke-miterlimit:2;"><path id="sound" d="M39.192,30.225c0.525,0 1.022,-0.239 1.35,-0.649c2.25,-2.811 11.456,-14.312 20.412,-25.5c2.842,-3.55 7.615,-4.918 11.906,-3.412c4.291,1.505 7.163,5.557 7.163,10.104c0,23.388 0,55.512 0,78.895c0,4.547 -2.871,8.598 -7.161,10.104c-4.29,1.507 -9.063,0.14 -11.906,-3.409c-8.957,-11.181 -18.163,-22.675 -20.414,-25.485c-0.328,-0.41 -0.825,-0.648 -1.349,-0.648c-2.586,0 -10.818,0 -19.062,0c-11.045,0 -19.999,0 -19.999,-20c0,0 0,-0.001 0,-0.001c0,-19.999 8.954,-19.999 19.999,-19.999l19.061,0Zm58.975,62.643c0.464,1.346 1.48,2.429 2.792,2.979c1.313,0.55 2.798,0.513 4.081,-0.1c17.423,-8.253 28.778,-25.888 28.778,-45.493c0,-19.606 -11.355,-37.24 -28.779,-45.49c-1.283,-0.613 -2.767,-0.65 -4.079,-0.1c-1.311,0.549 -2.326,1.632 -2.79,2.976c-0.003,0 -0.003,0 -0.003,0c-0.826,2.397 0.279,5.031 2.567,6.122c13.992,6.607 23.112,20.758 23.112,36.492c0,15.734 -9.12,29.885 -23.111,36.494c-2.287,1.09 -3.391,3.724 -2.565,6.119c-0.003,0.001 -0.003,0.001 -0.003,0.001Zm-7.967,-18.883c0.384,1.427 1.387,2.608 2.734,3.218c1.346,0.61 2.895,0.584 4.221,-0.069c10.055,-4.99 16.663,-15.322 16.663,-26.88c0,-11.558 -6.608,-21.89 -16.665,-26.876c-1.325,-0.653 -2.872,-0.678 -4.217,-0.069c-1.346,0.61 -2.347,1.789 -2.731,3.215c-0.007,0.008 -0.01,0.018 -0.012,0.027c-0.612,2.276 0.469,4.668 2.582,5.712c6.726,3.341 11.143,10.256 11.143,17.991c0,7.734 -4.417,14.649 -11.141,17.995c-2.111,1.043 -3.191,3.433 -2.579,5.706c-0.003,0.011 0,0.02 0.002,0.03Z" style="fill:#c5cae9;"/></svg>