<?xml version="1.0" encoding="UTF-8" standalone="no"?><!DOCTYPE svg PUBLIC "-//W3C//DTD SVG 1.1//EN" "http://www.w3.org/Graphics/SVG/1.1/DTD/svg11.dtd"><svg width="100%" height="100%" viewBox="0 0 98 101" version="1.1" xmlns="http://www.w3.org/2000/svg" xmlns:xlink="http://www.w3.org/1999/xlink" xml:space="preserve" xmlns:serif="http://www.serif.com/" style="fill-rule:evenodd;clip-rule:evenodd;stroke-linejoin:round;stroke-miterlimit:2;"><path id="stop" d="M21.44,23.933c-1.929,-1.929 -4.635,-2.869 -7.345,-2.552c-2.71,0.317 -5.126,1.856 -6.558,4.179c-4.79,7.69 -7.394,16.628 -7.394,25.834c0,26.91 21.848,48.758 48.758,48.758c26.911,0 48.758,-21.848 48.758,-48.758c0,-9.206 -2.603,-18.144 -7.403,-25.828c-1.43,-2.32 -3.843,-3.858 -6.55,-4.175c-2.706,-0.316 -5.409,0.623 -7.336,2.55c-0.008,-0.008 -0.008,-0.007 -0.008,-0.007c-2.926,2.925 -3.452,7.48 -1.271,10.996c3.087,4.888 4.757,10.59 4.757,16.464c0,17.08 -13.867,30.947 -30.947,30.947c-17.079,0 -30.946,-13.867 -30.946,-30.947c0,-5.874 1.67,-11.576 4.747,-16.471c2.178,-3.511 1.652,-8.059 -1.269,-10.981c0.008,-0.008 0.008,-0.009 0.007,-0.009Zm37.461,-13.781c0,-5.519 -4.481,-10 -10,-10c-5.519,0 -10,4.481 -10,10l0,20.901c0,5.519 4.481,10 10,10c5.519,0 10,-4.481 10,-10l0,-20.901Z" style="fill:#c5cae9;"/></svg>