<svg xmlns="http://www.w3.org/2000/svg" fill-rule="evenodd" stroke-linejoin="round" stroke-miterlimit="2" clip-rule="evenodd" viewBox="0 0 98 101"><path d="M21.44 23.933A8.921 8.921 0 0 0 7.537 25.56 48.866 48.866 0 0 0 .143 51.394c0 26.91 21.848 48.758 48.758 48.758 26.911 0 48.758-21.848 48.758-48.758a48.748 48.748 0 0 0-7.403-25.828 8.912 8.912 0 0 0-13.886-1.625l-.008-.007a8.908 8.908 0 0 0-1.271 10.996 30.828 30.828 0 0 1 4.757 16.464c0 17.08-13.867 30.947-30.947 30.947-17.079 0-30.946-13.867-30.946-30.947 0-5.874 1.67-11.576 4.747-16.471a8.898 8.898 0 0 0-1.269-10.981c.008-.008.008-.009.007-.009zm37.461-13.781c0-5.519-4.481-10-10-10s-10 4.481-10 10v20.901c0 5.519 4.481 10 10 10s10-4.481 10-10V10.152z"/></svg>
